<svg width="45" height="44" viewBox="0 0 45 44" fill="none" xmlns="http://www.w3.org/2000/svg">
<path d="M29.5202 14.8H27.1202C27.1202 12.148 24.9722 10 22.3202 10C19.6682 10 17.5202 12.148 17.5202 14.8H15.1202C13.8002 14.8 12.7202 15.88 12.7202 17.2V31.6C12.7202 32.92 13.8002 34 15.1202 34H29.5202C30.8402 34 31.9202 32.92 31.9202 31.6V17.2C31.9202 15.88 30.8402 14.8 29.5202 14.8ZM19.9202 19.6C19.9202 20.26 19.3802 20.8 18.7202 20.8C18.0602 20.8 17.5202 20.26 17.5202 19.6V17.2H19.9202V19.6ZM22.3202 12.4C23.6402 12.4 24.7202 13.48 24.7202 14.8H19.9202C19.9202 13.48 21.0002 12.4 22.3202 12.4ZM27.1202 19.6C27.1202 20.26 26.5802 20.8 25.9202 20.8C25.2602 20.8 24.7202 20.26 24.7202 19.6V17.2H27.1202V19.6Z" fill="white"/>
</svg>
