<svg width="30" height="24" viewBox="0 0 30 24" fill="none" xmlns="http://www.w3.org/2000/svg">
<g id="Vector">
<path d="M18.2386 21.3333V20H13.0568V21.3333C13.0568 22.0666 12.4739 22.6667 11.7614 22.6667H10.4659C10.0772 22.6667 9.81818 22.9333 9.81818 23.3333C9.81818 23.7333 10.0773 23.9999 10.4659 23.9999H20.8295C21.2182 23.9999 21.4772 23.7333 21.4772 23.3333C21.4772 22.9333 21.2181 22.6667 20.8295 22.6667H19.5341C18.8216 22.6667 18.2386 22.0666 18.2386 21.3333Z" fill="#D5E3EF"/>
<path d="M13.0568 20L13.0568 20.6666H16.2955C16.6841 20.6666 16.9432 20.9333 16.9432 21.3333C16.9432 21.7333 17.2023 21.9999 17.5909 21.9999H17.9147C18.1091 21.9999 18.2386 21.8666 18.2386 21.6666L18.2386 20H13.0568Z" fill="#B0C4D9"/>
<path d="M20.8295 23.9999H10.4659C10.0773 23.9999 9.81818 23.7333 9.81818 23.3333H21.4772C21.4772 23.7333 21.2182 23.9999 20.8295 23.9999Z" fill="#B0C4D9"/>
<path d="M27.9545 20H4.63635C3.92385 20 3.34088 19.3999 3.34088 18.6666V1.33335C3.34088 0.600015 3.92385 0 4.63635 0H27.9545C28.667 0 29.25 0.600015 29.25 1.33335V18.6666C29.25 19.4 28.667 20 27.9545 20Z" fill="#D5E3EF"/>
<path d="M29.25 16H3.34088V1.33335C3.34088 0.600015 3.92385 0 4.63635 0H27.9545C28.667 0 29.25 0.600015 29.25 1.33335V16Z" fill="#595A66"/>
<path d="M15.6477 18.6666C16.0054 18.6666 16.2954 18.3682 16.2954 18C16.2954 17.6318 16.0054 17.3333 15.6477 17.3333C15.29 17.3333 15 17.6318 15 18C15 18.3682 15.29 18.6666 15.6477 18.6666Z" fill="#595A66"/>
<path d="M27.9545 1.33335H4.63635V14.6666H27.9545V1.33335Z" fill="#70B7E5"/>
<path d="M8.52271 24H2.04547C1.33297 24 0.75 23.4 0.75 22.6667V9.33337C0.75 8.60003 1.33297 8.00002 2.04547 8.00002H8.52276C9.23526 8.00002 9.81823 8.60003 9.81823 9.33337V22.6667C9.81818 23.4 9.23521 24 8.52271 24Z" fill="#595A66"/>
<path d="M8.52271 24H2.04547C1.33297 24 0.75 23.4 0.75 22.6667V9.33337C0.75 8.60003 1.33297 8.00002 2.04547 8.00002H8.52276C9.23526 8.00002 9.81823 8.60003 9.81823 9.33337V22.6667C9.81818 23.4 9.23521 24 8.52271 24Z" fill="#595A66"/>
<path d="M9.17047 8.20002V22.6667C9.17047 23.0667 8.91135 23.3333 8.52276 23.3333H0.944323C1.13865 23.7333 1.59203 24 2.04547 24H8.52271C9.23521 24 9.81818 23.4 9.81823 22.6667V9.33337C9.81818 8.86667 9.55912 8.40003 9.17047 8.20002Z" fill="#494A52"/>
<path d="M8.52276 10.6667H2.04547V21.3333H8.52276V10.6667Z" fill="#70B7E5"/>
<path d="M5.28412 23.3333C5.64184 23.3333 5.93182 23.0348 5.93182 22.6667C5.93182 22.2985 5.64184 22 5.28412 22C4.9264 22 4.63641 22.2985 4.63641 22.6667C4.63641 23.0348 4.9264 23.3333 5.28412 23.3333Z" fill="#35363E"/>
<path d="M6.25568 10H4.3125C4.11818 10 3.98865 9.86669 3.98865 9.66669C3.98865 9.46668 4.11818 9.33337 4.3125 9.33337H6.25568C6.45 9.33337 6.57953 9.46668 6.57953 9.66669C6.57953 9.86669 6.45 10 6.25568 10Z" fill="#35363E"/>
<path d="M8.52276 21.3333H5.28412L8.52271 18L8.52276 21.3333Z" fill="#90CEF1"/>
<path d="M3.98865 21.3333L8.52271 16.6667V15.3333L2.69318 21.3333H3.98865Z" fill="#90CEF1"/>
<path d="M8.52276 10.6667H2.04547V11.3333H8.52276V10.6667Z" fill="#4C9CD6"/>
<path d="M1.39771 21.0667C1.39771 21.6667 1.13859 22.2666 0.75 22.6667V9.33337C1.13865 9.73338 1.39771 10.3334 1.39771 10.9333V21.0667Z" fill="#6F707E"/>
<path d="M26.6591 14H21.4773L27.3068 8.00002V13.3333C27.3068 13.7334 27.0477 14 26.6591 14Z" fill="#90CEF1"/>
<path d="M19.5341 14L27.3068 6.00003V4.00004L17.5909 14H19.5341Z" fill="#90CEF1"/>
<path d="M6.83865 0.666702C6.25568 0.666702 5.67276 0.40001 5.28412 5.74211e-05H18.2386C17.85 0.400067 17.267 0.666702 16.6841 0.666702H6.83865Z" fill="#6F707E"/>
<path d="M11.1136 14.6666H9.81818V16H11.1136V14.6666Z" fill="#35363E"/>
<path d="M11.1136 16H9.81818V20H11.1136V16Z" fill="#B0C4D9"/>
<path d="M11.1136 14.6666H9.81818L9.81823 9.33337C10.5307 9.33337 11.1136 9.93332 11.1136 10.6667V14.6666Z" fill="#4C9CD6"/>
</g>
</svg>
