<svg width="30" height="28" viewBox="0 0 30 28" fill="none" xmlns="http://www.w3.org/2000/svg">
<g id="Vector">
<path d="M25.2572 10.6468C25.2572 10.6468 29.5853 15.2051 29.5853 22.1918C29.5853 22.1918 28.9156 22.4409 27.7112 22.7289C27.4459 22.7916 27.1553 22.8573 26.8402 22.9218C26.4857 22.9947 26.1001 23.0676 25.6856 23.1363C25.4062 23.1829 25.1134 23.2277 24.8082 23.2701C23.4594 23.4559 21.8664 23.5916 20.0833 23.5916C17.8289 23.5916 15.878 23.3753 14.3414 23.1124C11.969 22.7074 10.5815 22.1918 10.5815 22.1918C10.5815 15.205 14.9096 10.6468 14.9096 10.6468V7.79707L12.5759 5.84653L10.5815 4.17974L14.3901 0.704547C14.8567 0.2786 15.4325 0.0461706 16.0177 0.00615654C16.2906 -0.0123427 16.5647 0.0109118 16.8317 0.0760362C17.2631 0.181175 17.6734 0.395685 18.022 0.718233L18.4282 1.0946C19.3661 1.96441 20.8006 1.96441 21.7391 1.0946L22.1453 0.718233C22.4939 0.395627 22.9042 0.181175 23.3356 0.0760362C24.1755 -0.128847 25.0929 0.0802115 25.7766 0.704547L29.5853 4.17974L26.3653 6.87112L25.2572 7.79713V10.6468Z" fill="#80B4FB"/>
<path d="M16.2448 5.72434V10.9236C16.2448 10.9236 14.4781 16.3864 14.4781 19.058C14.4781 20.1214 14.4159 21.6535 14.3414 23.1124C11.969 22.7074 10.5815 22.1918 10.5815 22.1918C10.5815 15.205 14.9096 10.6468 14.9096 10.6468V5.01696H15.5498C15.9337 5.0169 16.2448 5.3336 16.2448 5.72434Z" fill="#61A2F9"/>
<path d="M16.0177 0.00615654C14.6912 1.2637 13.1535 3.90967 12.5759 5.84653L10.5815 4.17974L14.3901 0.704547C14.8567 0.2786 15.4325 0.0461706 16.0177 0.00615654Z" fill="#61A2F9"/>
<path d="M23.3356 0.0760362C23.1953 0.748157 22.0954 5.6896 20.0834 6.40707C18.0714 5.6896 16.972 0.748099 16.8317 0.0760362C17.2631 0.181175 17.6734 0.395685 18.022 0.718233L18.4282 1.0946C19.3661 1.96441 20.8006 1.96441 21.7391 1.0946L22.1453 0.718233C22.4939 0.395627 22.9042 0.181175 23.3356 0.0760362Z" fill="#61A2F9"/>
<path d="M25.6856 23.1363C25.4062 23.1829 25.1134 23.2277 24.8082 23.2701C24.7683 21.4265 24.5817 19.5889 24.2524 17.8051C24.2078 17.5619 24.3651 17.3277 24.604 17.2823C24.8429 17.2369 25.0729 17.3964 25.1182 17.6402C25.4491 19.4354 25.6398 21.2819 25.6856 23.1363Z" fill="#61A2F9"/>
<path d="M27.7112 22.7289C27.4459 22.7916 27.1553 22.8573 26.8402 22.9218C26.758 21.5119 26.5883 20.105 26.336 18.7376C26.2908 18.4944 26.4481 18.2602 26.6876 18.2142C26.9265 18.1688 27.1565 18.3289 27.2011 18.5721C27.4518 19.9318 27.6231 21.3279 27.7112 22.7289Z" fill="#61A2F9"/>
<path d="M26.3653 6.87112L25.2572 7.79713V6.01517C25.2572 5.73229 25.6225 5.62808 25.7669 5.86978L26.3653 6.87112Z" fill="#61A2F9"/>
<path d="M20.0837 11.5526C18.3297 11.5526 16.5758 11.3979 14.8342 11.0885C14.5947 11.046 14.4344 10.8138 14.4762 10.57C14.518 10.3263 14.7461 10.1631 14.9855 10.2057C18.3684 10.8066 21.7989 10.8067 25.1818 10.2057C25.4209 10.1631 25.6493 10.3262 25.6911 10.57C25.7329 10.8138 25.5727 11.0459 25.3331 11.0885C23.5915 11.3979 21.8376 11.5526 20.0837 11.5526Z" fill="#FFD064"/>
<path d="M2.48467 18.146C2.27096 18.146 2.08352 17.9874 2.05013 17.7657C1.78053 15.9757 3.40002 14.7185 5.11459 13.3874C5.84244 12.8224 6.61295 12.2241 7.28422 11.552C6.74274 11.2371 6.23396 10.9146 5.78147 10.5815C4.33479 9.51669 3.63156 8.45121 3.63156 7.32409C3.63156 5.54352 4.60354 4.79149 5.18296 4.50177C6.26393 3.96117 7.6819 4.14152 8.71159 4.95056C9.79769 5.80396 10.2452 7.17134 9.93927 8.70208C9.73906 9.70383 9.28224 10.5582 8.69 11.313C9.29597 11.6376 9.92719 11.957 10.5539 12.2742C13.7411 13.8874 16.7516 15.4112 16.969 17.6539C16.9929 17.9001 16.8161 18.1195 16.5741 18.1438C16.3318 18.1677 16.1167 17.9881 16.0928 17.7418C15.9232 15.9928 12.9944 14.5103 10.1619 13.0766C9.46815 12.7255 8.76384 12.369 8.08926 12.0031C7.3404 12.7864 6.46915 13.4627 5.64844 14.0999C4.0824 15.3157 2.72989 16.3656 2.9203 17.63C2.95716 17.8746 2.79222 18.1032 2.5519 18.1408C2.5294 18.1443 2.50684 18.146 2.48467 18.146ZM6.53308 5.09084C6.1922 5.09084 5.86101 5.16113 5.57118 5.30605C4.87821 5.65261 4.51192 6.35047 4.51192 7.32409C4.51192 8.63916 5.99592 9.79128 7.89846 10.8765C8.46501 10.1839 8.89904 9.41144 9.07651 8.52347C9.40024 6.9036 8.64977 6.03407 8.17359 5.65997C7.69933 5.28732 7.10276 5.09084 6.53308 5.09084Z" fill="#407093"/>
<path d="M16.5309 17.3992C11.849 17.1503 7.16714 17.1503 2.48524 17.3992C1.53383 17.4497 0.752435 18.1843 0.631707 19.1462C0.342165 21.4529 0.342165 23.7596 0.631707 26.0663C0.752435 27.0282 1.53378 27.7628 2.48524 27.8133C7.16714 28.0622 11.849 28.0622 16.5309 27.8133C17.4823 27.7628 18.2637 27.0283 18.3845 26.0663C18.674 23.7596 18.674 21.4529 18.3845 19.1462C18.2637 18.1843 17.4824 17.4497 16.5309 17.3992Z" fill="#DB5C6E"/>
<path d="M3.33923 27.8559C3.05458 27.8427 2.76989 27.8282 2.48524 27.8133C1.53383 27.7625 0.752606 27.0288 0.631707 26.0663C0.342165 23.7596 0.342165 21.4529 0.631707 19.1462C0.752435 18.1843 1.53383 17.4497 2.48524 17.3992C2.76989 17.3842 3.05458 17.3701 3.33923 17.357C2.7353 17.6611 2.29626 18.2573 2.20647 18.9736C1.9024 21.3955 1.9024 23.8174 2.20647 26.2387C2.29626 26.955 2.7353 27.5512 3.33923 27.8559Z" fill="#D64553"/>
<path d="M18.3842 22.2031C18.2636 23.1649 17.4823 23.8992 16.5308 23.9496C11.8491 24.199 7.16742 24.199 2.48507 23.9496C1.53361 23.8992 0.752264 23.1649 0.63165 22.2031C0.568181 21.6967 0.518899 21.1903 0.482492 20.6839C0.394923 21.94 0.392986 23.1959 0.47708 24.452C0.831344 24.9985 1.42724 25.3643 2.1054 25.4002C7.04088 25.6631 11.9757 25.6631 16.9105 25.4002C17.589 25.3643 18.1851 24.9981 18.5393 24.4513C18.6234 23.1945 18.6214 21.9379 18.5336 20.6812C18.4977 21.1885 18.4484 21.6958 18.3842 22.2031Z" fill="#D64553"/>
<path d="M11.8786 25.5187C10.4637 25.5975 9.04871 25.5975 7.6337 25.5187C7.01445 25.4842 6.52077 24.9853 6.47092 24.3561C6.40255 23.4925 6.40255 22.6289 6.47092 21.7653C6.52071 21.1361 7.01439 20.6372 7.63364 20.6027C9.04859 20.5239 10.4636 20.5239 11.8785 20.6027C12.4978 20.6372 12.9915 21.1361 13.0413 21.7653C13.1096 22.6289 13.1096 23.4925 13.0413 24.3561C12.9915 24.9853 12.4979 25.4842 11.8786 25.5187Z" fill="#FFD064"/>
<path d="M9.75615 23.9858C9.17713 23.9858 8.5912 23.9717 8.01024 23.9441C7.97509 23.3566 7.97509 22.7646 8.01024 22.1772C8.5912 22.1495 9.17718 22.1355 9.75615 22.1355C10.3351 22.1355 10.921 22.1495 11.502 22.1772C11.5372 22.7647 11.5372 23.3567 11.502 23.9441C10.921 23.9717 10.3351 23.9858 9.75615 23.9858Z" fill="#DB5C6E"/>
<path d="M9.75621 24.4338C9.17154 24.4338 8.57719 24.4197 7.98967 24.3917C7.76508 24.381 7.58453 24.1998 7.57086 23.9713C7.53474 23.367 7.53474 22.7542 7.57086 22.1499C7.58453 21.9215 7.76508 21.7403 7.98967 21.7296C8.57764 21.7016 9.172 21.6874 9.75621 21.6874C10.3404 21.6874 10.9347 21.7016 11.5226 21.7296C11.7472 21.7402 11.9278 21.9215 11.9414 22.1499C11.9776 22.7543 11.9776 23.367 11.9414 23.9713C11.9278 24.1997 11.7472 24.3809 11.5226 24.3917C10.9351 24.4197 10.3408 24.4338 9.75621 24.4338ZM8.43122 23.5134C9.31591 23.5457 10.1962 23.5457 11.081 23.5134C11.0905 23.2119 11.0905 22.9093 11.081 22.6079C10.1958 22.5755 9.31648 22.5755 8.43122 22.6079C8.42176 22.9093 8.42176 23.2119 8.43122 23.5134Z" fill="#FFC250"/>
</g>
</svg>
