<svg width="28" height="28" viewBox="0 0 28 28" fill="none" xmlns="http://www.w3.org/2000/svg">
<g id="Vector">
<path fill-rule="evenodd" clip-rule="evenodd" d="M9.43068 20.8148L3.77417 24.8349L4.01468 26.6294C4.08454 27.1522 4.43988 27.5898 4.9582 27.5898H11.3783L12.7253 22.4987L9.43068 20.8148Z" fill="#EB5468"/>
<path fill-rule="evenodd" clip-rule="evenodd" d="M18.3694 8.67073H1.61087L2.81818 17.6903L12.3792 16.9858L18.0311 11.1981L18.3694 8.67073Z" fill="#EB5468"/>
<path fill-rule="evenodd" clip-rule="evenodd" d="M10.7901 14.9686L2.81818 17.6903L3.77417 24.8349L10.5154 22.4576C10.399 22.268 10.3338 22.0453 10.3338 21.8068C10.3338 21.1228 10.8832 20.5621 11.5567 20.5621H11.7662C11.4823 20.2114 11.2991 19.7075 11.2991 19.033H10.7017C10.3556 19.033 10.0731 18.7455 10.0731 18.3932V17.8325C10.0732 16.7442 10.3338 15.7901 10.7901 14.9686Z" fill="#F9F7F8"/>
<path fill-rule="evenodd" clip-rule="evenodd" d="M9.395 6.38977H1.30513C0.943547 6.38977 0.647148 6.69147 0.647148 7.06109V8.00095C0.647148 8.36898 0.943547 8.67073 1.30513 8.67073H1.61087H18.3694H18.6751C19.0367 8.67073 19.3331 8.36904 19.3331 8.00095V7.06109C19.3331 6.69147 19.0367 6.38977 18.6751 6.38977H11.1998H9.395Z" fill="#F9F7F8"/>
<path fill-rule="evenodd" clip-rule="evenodd" d="M14.2492 0.439348L10.0701 1.54821C9.66657 1.65563 9.395 2.0142 9.395 2.43754L9.395 6.38977H11.1998L11.1998 3.14681L14.7055 2.21799C15.185 2.09007 15.4752 1.58617 15.351 1.09803C15.2253 0.608353 14.7303 0.312951 14.2492 0.439348Z" fill="#365E7D"/>
<path fill-rule="evenodd" clip-rule="evenodd" d="M11.5242 24.9329L18.9467 25.2598L25.2628 24.9329H25.9021V23.0531L18.7124 21.8068L11.5242 23.0531V24.9329Z" fill="#FFE07D"/>
<path fill-rule="evenodd" clip-rule="evenodd" d="M11.5567 20.5621C10.8832 20.5621 10.3338 21.1228 10.3338 21.8068C10.3338 22.0453 10.399 22.268 10.5154 22.4576C10.7249 22.8051 11.099 23.0405 11.5242 23.0531L25.8695 23.0531L25.9021 23.0531C26.5601 23.0341 27.0924 22.4813 27.0924 21.8068C27.0924 21.1228 26.5415 20.5621 25.8695 20.5621C20.9889 20.5621 16.4358 20.5621 11.5567 20.5621Z" fill="#CE775F"/>
<path fill-rule="evenodd" clip-rule="evenodd" d="M26.1272 19.033L18.5836 17.327L11.2991 19.033C11.2991 19.7075 11.4823 20.2114 11.7662 20.5621C12.4351 21.3882 13.6673 21.3582 14.3842 20.7043C14.5006 20.5984 14.541 20.5858 14.6511 20.7027C15.0158 21.0929 15.4659 21.2871 15.9159 21.2871C16.3659 21.2871 16.816 21.0929 17.1806 20.7027C17.2986 20.5953 17.3389 20.5842 17.4475 20.7011C17.8122 21.0913 18.2622 21.2856 18.7123 21.2856C19.1639 21.2856 19.6139 21.0913 19.9786 20.7011C20.0872 20.5842 20.1276 20.5953 20.244 20.7027C20.6087 21.0929 21.0602 21.2871 21.5103 21.2871C21.9603 21.2871 22.4104 21.0929 22.775 20.7027C22.8852 20.5858 22.924 20.5984 23.0419 20.7043C23.7589 21.3582 24.9911 21.3882 25.6599 20.5621C25.9441 20.2114 26.1272 19.7075 26.1272 19.033Z" fill="#A7E9A6"/>
<path fill-rule="evenodd" clip-rule="evenodd" d="M18.0311 11.1981C15.0065 11.3624 12.0952 12.6197 10.7901 14.9686C10.3338 15.7901 10.0732 16.7442 10.0731 17.8325V18.3932C10.0731 18.7455 10.3556 19.033 10.7017 19.033H11.2991L26.1272 19.033L26.7247 19.033C27.0707 19.033 27.3531 18.7455 27.3531 18.3932V17.8325C27.3531 13.1647 22.5656 10.9517 18.0311 11.1981Z" fill="#FFBC85"/>
<path fill-rule="evenodd" clip-rule="evenodd" d="M17.8092 11.2123C21.8083 11.4998 25.5452 13.7081 25.5452 17.8325V18.3932C25.5452 18.5749 25.4692 18.7408 25.3497 18.8561C25.2364 18.9651 25.0843 19.033 24.9183 19.033L26.1272 19.033L26.7247 19.033C27.0707 19.033 27.3531 18.7455 27.3531 18.3932V17.8325C27.3531 13.1647 22.5656 10.9517 18.0311 11.1981C17.9566 11.2028 17.8837 11.2076 17.8092 11.2123Z" fill="#F5A96C"/>
<path fill-rule="evenodd" clip-rule="evenodd" d="M24.074 23.0531H25.8695L25.9021 23.0531C26.5601 23.0341 27.0924 22.4813 27.0924 21.8068C27.0924 21.1228 26.5415 20.5621 25.8695 20.5621L25.6599 20.5621C25.4783 20.7864 25.255 20.9475 25.0113 21.0502C25.1696 21.2602 25.2643 21.524 25.2643 21.8068C25.2643 22.2396 25.0455 22.6234 24.7133 22.8462C24.5287 22.971 24.3099 23.0468 24.074 23.0531Z" fill="#BE694F"/>
<path fill-rule="evenodd" clip-rule="evenodd" d="M24.074 24.9329L25.2628 24.9329H25.9021V23.0531L25.8695 23.0531H24.074V24.9329Z" fill="#FFD064"/>
<path fill-rule="evenodd" clip-rule="evenodd" d="M23.3556 20.9333C23.8522 21.2207 24.479 21.276 25.0113 21.0502C25.255 20.9475 25.4783 20.7864 25.6599 20.5621C25.9441 20.2114 26.1272 19.7075 26.1272 19.033L24.9183 19.033H24.2432C24.2432 19.7075 24.0601 20.2114 23.7761 20.5621C23.6535 20.7137 23.5108 20.8385 23.3556 20.9333Z" fill="#7FDBAE"/>
<path fill-rule="evenodd" clip-rule="evenodd" d="M11.2541 10.3482C13.4997 10.4509 13.5385 10.8316 13.9481 12.1774C15.112 11.6325 16.4451 11.3102 17.8092 11.2123C17.8837 11.2076 17.9566 11.2028 18.0311 11.1981L18.3694 8.67073H1.61087L1.83591 10.3482H11.2541Z" fill="#E5384F"/>
<path fill-rule="evenodd" clip-rule="evenodd" d="M15.3852 8.67073H18.3694H18.6751C19.0367 8.67073 19.3331 8.36904 19.3331 8.00095V7.06109C19.3331 6.69147 19.0367 6.38977 18.6751 6.38977H15.3852C15.7468 6.38977 16.0432 6.69147 16.0432 7.06109V8.00095C16.0432 8.36904 15.7468 8.67073 15.3852 8.67073Z" fill="#DDDAEC"/>
<path fill-rule="evenodd" clip-rule="evenodd" d="M11.1998 3.14681L14.7055 2.21799C15.185 2.09007 15.4752 1.58617 15.351 1.09803L11.0664 2.20377C10.337 2.39176 10.4937 2.99514 10.4937 3.79602V6.38977L11.1998 6.38977L11.1998 3.14681Z" fill="#2B4D66"/>
<path fill-rule="evenodd" clip-rule="evenodd" d="M25.9021 24.9329H11.5242H10.3603C10.202 24.9329 10.0732 25.064 10.0732 25.2235V26.2613C10.0732 26.9911 10.6614 27.5898 11.3783 27.5898L26.048 27.5898C26.765 27.5898 27.3531 26.9911 27.3531 26.2613V25.2235C27.3531 25.064 27.2243 24.9329 27.066 24.9329H25.9021Z" fill="#FFBC85"/>
<path fill-rule="evenodd" clip-rule="evenodd" d="M25.5452 26.2613C25.5452 26.9911 24.9586 27.5898 24.2401 27.5898H26.048C26.765 27.5898 27.3531 26.9911 27.3531 26.2613V25.2235C27.3531 25.064 27.2243 24.9329 27.066 24.9329H25.9021H25.2628C25.3341 24.9329 25.3993 24.9613 25.449 25.0071C25.508 25.0608 25.5452 25.1382 25.5452 25.2235V26.2613Z" fill="#F5A96C"/>
<path d="M25.332 16.6926C25.1747 16.5324 24.9211 16.534 24.7636 16.6942C24.6062 16.8544 24.6078 17.1156 24.7652 17.2759C24.8438 17.356 24.947 17.396 25.0501 17.396C25.1533 17.396 25.2564 17.356 25.3351 17.2759C25.4925 17.1156 25.4925 16.8559 25.3351 16.6957L25.332 16.6926Z" fill="black"/>
<path d="M22.7966 16.6914C22.6386 16.5318 22.3849 16.5345 22.2283 16.6954C22.0715 16.8562 22.0742 17.1175 22.2323 17.277C22.3108 17.3564 22.4134 17.396 22.516 17.396C22.6197 17.396 22.7234 17.3555 22.8022 17.2746C22.959 17.1138 22.9578 16.854 22.7998 16.6945L22.7966 16.6914Z" fill="black"/>
<path d="M20.2636 16.6926C20.1063 16.5324 19.8527 16.534 19.6952 16.6942C19.5378 16.8544 19.5394 17.1156 19.6968 17.2759C19.7755 17.356 19.8786 17.396 19.9817 17.396C20.0849 17.396 20.188 17.356 20.2667 17.2759C20.4241 17.1156 20.4241 16.8559 20.2667 16.6957L20.2636 16.6926Z" fill="black"/>
<path d="M17.7295 16.6926C17.5721 16.5324 17.3185 16.534 17.1611 16.6942C17.0037 16.8544 17.0052 17.1156 17.1626 17.2759C17.2413 17.356 17.3445 17.396 17.4476 17.396C17.5507 17.396 17.6539 17.356 17.7325 17.2759C17.8899 17.1156 17.8899 16.8559 17.7325 16.6957L17.7295 16.6926Z" fill="black"/>
<path d="M15.1953 16.6926C15.038 16.5324 14.7843 16.534 14.6269 16.6942C14.4695 16.8544 14.4711 17.1156 14.6285 17.2759C14.7071 17.356 14.8103 17.396 14.9134 17.396C15.0165 17.396 15.1197 17.356 15.1984 17.2759C15.3558 17.1156 15.3558 16.8559 15.1984 16.6957L15.1953 16.6926Z" fill="black"/>
<path d="M12.6611 16.6926C12.5037 16.5324 12.2501 16.534 12.0927 16.6942C11.9353 16.8544 11.9368 17.1156 12.0942 17.2759C12.1729 17.356 12.2761 17.396 12.3792 17.396C12.4823 17.396 12.5855 17.356 12.6641 17.2759C12.8215 17.1156 12.8215 16.8559 12.6641 16.6957L12.6611 16.6926Z" fill="black"/>
<path d="M24.1157 14.7928C23.9921 14.6045 23.7418 14.5539 23.5567 14.6797C23.3717 14.8057 23.322 15.0604 23.4457 15.2487L23.4489 15.2535C23.5266 15.3718 23.6542 15.4358 23.7843 15.4358C23.8613 15.4358 23.9391 15.4133 24.0079 15.3665C24.1929 15.2406 24.2427 14.9859 24.1189 14.7975L24.1157 14.7928Z" fill="black"/>
<path d="M21.5299 14.7307C21.3726 14.5706 21.1174 14.5706 20.96 14.7307C20.8026 14.891 20.8026 15.1506 20.96 15.3108L20.9647 15.3156C21.0434 15.3957 21.1465 15.4357 21.2497 15.4357C21.3528 15.4357 21.456 15.3957 21.5346 15.3156C21.692 15.1553 21.692 14.8957 21.5346 14.7355L21.5299 14.7307Z" fill="black"/>
<path d="M18.9927 14.7275C18.8353 14.5673 18.5817 14.569 18.4243 14.7291C18.2669 14.8893 18.2685 15.1506 18.4259 15.3108C18.5045 15.3909 18.6077 15.431 18.7108 15.431C18.8139 15.431 18.9171 15.3909 18.9958 15.3108C19.1532 15.1506 19.1532 14.8909 18.9958 14.7307L18.9927 14.7275Z" fill="black"/>
<path d="M16.4585 14.7275C16.3012 14.5673 16.0475 14.569 15.8901 14.7291C15.7326 14.8893 15.7343 15.1506 15.8916 15.3108C15.9703 15.3909 16.0735 15.431 16.1766 15.431C16.2797 15.431 16.3829 15.3909 16.4616 15.3108C16.6189 15.1506 16.6189 14.8909 16.4616 14.7307L16.4585 14.7275Z" fill="black"/>
<path d="M13.9721 14.7862C13.8492 14.5974 13.5991 14.5457 13.4136 14.671C13.228 14.7961 13.1774 15.0507 13.3004 15.2395L13.3035 15.2443C13.381 15.3634 13.5091 15.4279 13.6397 15.4279C13.7162 15.4279 13.7935 15.4058 13.862 15.3595C14.0476 15.2344 14.0983 14.9798 13.9753 14.791L13.9721 14.7862Z" fill="black"/>
<path d="M19.7498 13.405C19.819 13.4526 19.8975 13.4754 19.9752 13.4754C20.1045 13.4754 20.2316 13.4122 20.3094 13.2949L20.3125 13.2902C20.4372 13.1025 20.3888 12.8475 20.2044 12.7206C20.0201 12.5936 19.7695 12.643 19.6448 12.8307L19.6417 12.8354C19.517 13.0231 19.5655 13.2781 19.7498 13.405Z" fill="black"/>
<path d="M17.217 13.4059C17.2859 13.4529 17.3639 13.4754 17.441 13.4754C17.5709 13.4754 17.6984 13.4117 17.7761 13.2936L17.7792 13.2889C17.9032 13.1008 17.8538 12.8459 17.6689 12.7198C17.484 12.5937 17.2337 12.6439 17.1098 12.8321L17.1066 12.8368C16.9827 13.0249 17.0321 13.2797 17.217 13.4059Z" fill="black"/>
<path d="M26.7247 19.4432C27.2934 19.4432 27.7561 18.9722 27.7561 18.3933V17.8325C27.7561 15.6345 26.7609 13.7916 24.878 12.503C23.2452 11.3855 21.0558 10.7702 18.7131 10.7702C18.6402 10.7702 18.5676 10.7708 18.495 10.772L18.7216 9.07858C19.285 9.05359 19.7361 8.58059 19.7361 8.00106V7.06114C19.7361 6.46481 19.2601 5.97962 18.6751 5.97962H11.6028V3.46387L14.8077 2.6148C15.5024 2.42939 15.9212 1.70283 15.741 0.994327C15.5592 0.286369 14.8447 -0.140681 14.1476 0.0423799L9.96813 1.15135C9.38431 1.30679 8.99204 1.82365 8.99204 2.43754V5.97957H1.30513C0.720066 5.97957 0.244141 6.46476 0.244141 7.06109V8.001C0.244141 8.58054 0.695295 9.05353 1.2587 9.07853L3.61533 26.6847C3.71877 27.4591 4.271 28 4.9582 28H26.048C26.9899 28 27.7561 27.22 27.7561 26.2613V25.2235C27.7561 24.837 27.4466 24.5227 27.066 24.5227H26.3052V23.4025C26.9908 23.2079 27.4954 22.5665 27.4954 21.8068C27.4954 21.0532 26.9978 20.4161 26.3196 20.2169C26.4129 19.9819 26.477 19.7231 26.5081 19.4433L26.7247 19.4432ZM9.79801 2.43754C9.79801 2.19891 9.94481 2.00562 10.1717 1.94518L14.3499 0.836481C14.6172 0.766309 14.8914 0.930172 14.9609 1.20085C15.0298 1.47186 14.8693 1.75014 14.6039 1.82103L11.0983 2.74978C10.9207 2.79677 10.7968 2.96003 10.7968 3.14675V5.97951H9.79795L9.79801 2.43754ZM2.07251 9.08093H9.38414C9.60671 9.08093 9.78715 8.89733 9.78715 8.67073C9.78715 8.44413 9.60671 8.26052 9.38414 8.26052H1.30513C1.16692 8.26052 1.05016 8.14167 1.05016 8.001V7.06109C1.05016 6.91954 1.16692 6.79998 1.30513 6.79998H18.6751C18.8133 6.79998 18.9301 6.91959 18.9301 7.06109V8.001C18.9301 8.14167 18.8133 8.26052 18.6751 8.26052H11.2991C11.0766 8.26052 10.8961 8.44413 10.8961 8.67073C10.8961 8.89733 11.0766 9.08093 11.2991 9.08093H17.9078L17.6764 10.8112C15.7297 10.9652 13.9375 11.5522 12.5483 12.503C11.6762 13.0998 10.9949 13.8158 10.5144 14.6307L3.15171 17.1439L2.07251 9.08093ZM3.22489 17.6903C3.22742 17.698 3.22812 17.7059 3.22806 17.7138L3.22489 17.6903ZM3.26251 17.9713L10.033 15.6602C9.79296 16.335 9.67012 17.0618 9.67012 17.8325V18.3933C9.67012 18.9722 10.1329 19.4432 10.7017 19.4432H10.9183C10.9493 19.7231 11.0134 19.9818 11.1066 20.2169C10.4284 20.4161 9.93084 21.0533 9.93084 21.8068C9.93084 21.9467 9.94819 22.0824 9.98038 22.2122L4.10737 24.2833L3.26251 17.9713ZM9.92874 27.1796H4.9582C4.63811 27.1796 4.45423 26.8755 4.41398 26.574L4.21834 25.1124L10.3747 22.9414C10.5753 23.158 10.8317 23.3204 11.1211 23.4025V24.5227H10.3602C9.97968 24.5227 9.67012 24.837 9.67012 25.2235V26.2613C9.67012 26.5982 9.76507 26.9129 9.92874 27.1796ZM26.9501 25.3431V26.2613C26.9501 26.7677 26.5455 27.1796 26.048 27.1796H11.3783C10.8809 27.1796 10.4761 26.7677 10.4761 26.2613V25.3431H18.3539C18.5764 25.3431 18.7569 25.1595 18.7569 24.9329C18.7569 24.7063 18.5764 24.5227 18.3539 24.5227H11.9271V23.4634H25.4991V24.5227H20.2503C20.0277 24.5227 19.8472 24.7063 19.8472 24.9329C19.8472 25.1595 20.0277 25.3431 20.2503 25.3431H26.9501ZM26.6894 21.8068C26.6894 22.2679 26.3216 22.6429 25.8696 22.6429H11.5567C11.1047 22.6429 10.7369 22.2679 10.7369 21.8068C10.7369 21.3466 11.1047 20.9723 11.5567 20.9723H11.5898C11.766 21.1524 11.9724 21.2998 12.2084 21.407C12.9539 21.7459 13.8548 21.6319 14.5077 21.1316C14.9122 21.4979 15.4055 21.6973 15.9159 21.6973C16.4226 21.6973 16.9122 21.5009 17.315 21.1399C17.7175 21.4999 18.2065 21.6958 18.7124 21.6958C19.2186 21.6958 19.7075 21.5004 20.1105 21.1406C20.5133 21.5012 21.0032 21.6974 21.5104 21.6974C22.0213 21.6974 22.5149 21.4977 22.9188 21.1318C23.5713 21.6321 24.4714 21.7459 25.2168 21.4074C25.4531 21.3 25.6597 21.1525 25.8362 20.9723H25.8696C26.3216 20.9723 26.6894 21.3466 26.6894 21.8068ZM11.7309 19.4432H25.6954C25.6093 20.0327 25.3305 20.4573 24.8885 20.6581C24.3795 20.8891 23.731 20.7826 23.3085 20.3966C22.949 20.0738 22.6619 20.2304 22.4832 20.42C22.2077 20.7147 21.8623 20.8769 21.5104 20.8769C21.1576 20.8769 20.8116 20.7146 20.5361 20.42C20.5293 20.4126 20.5222 20.4055 20.5148 20.3987C20.1544 20.0662 19.8651 20.2264 19.6868 20.4183C19.4073 20.7173 19.0704 20.8753 18.7124 20.8753C18.3606 20.8753 18.0151 20.713 17.7405 20.4192C17.5622 20.2273 17.2737 20.0676 16.9121 20.3969C16.904 20.4043 16.8963 20.4119 16.8888 20.4199C16.6134 20.7146 16.2679 20.8769 15.916 20.8769C15.5642 20.8769 15.2187 20.7146 14.9421 20.4186C14.7634 20.229 14.475 20.0716 14.1153 20.3988C13.6948 20.7825 13.0459 20.889 12.5371 20.6578C12.0954 20.4572 11.8169 20.0326 11.7309 19.4432ZM10.7017 18.6228C10.5773 18.6228 10.4761 18.5198 10.4761 18.3933V17.8325C10.4761 15.4168 11.8475 13.9711 12.998 13.1838C14.4992 12.1564 16.5289 11.5906 18.7131 11.5906C20.8973 11.5906 22.927 12.1564 24.4282 13.1838C25.5787 13.9711 26.9501 15.4168 26.9501 17.8325V18.3932C26.9501 18.5198 26.849 18.6228 26.7247 18.6228L10.7017 18.6228Z" fill="black"/>
</g>
</svg>
