<svg width="44" height="44" viewBox="0 0 44 44" fill="none" xmlns="http://www.w3.org/2000/svg">
<path d="M22 14.8448L11.14 23.7117C11.14 23.7242 11.1368 23.7426 11.1304 23.7677C11.1242 23.7926 11.1209 23.8107 11.1209 23.8235V32.8022C11.1209 33.1264 11.2406 33.4073 11.4799 33.6439C11.7191 33.8806 12.0023 33.9998 12.3297 33.9998H19.5822V26.8166H24.4179V34H31.6703C31.9977 34 32.2813 33.8812 32.5202 33.6439C32.7595 33.4076 32.8796 33.1265 32.8796 32.8022V23.8235C32.8796 23.7737 32.8727 23.7361 32.8605 23.7117L22 14.8448Z" fill="white"/>
<path d="M37.0153 21.6913L32.8792 18.2869V10.6549C32.8792 10.4804 32.8225 10.3369 32.7089 10.2246C32.5961 10.1124 32.4513 10.0563 32.2747 10.0563H28.6484C28.472 10.0563 28.3272 10.1124 28.2138 10.2246C28.1006 10.3369 28.044 10.4804 28.044 10.6549V14.3025L23.4356 10.4863C23.0331 10.1621 22.5545 10 22.0004 10C21.4464 10 20.9679 10.1621 20.565 10.4863L6.98454 21.6913C6.85864 21.7909 6.78965 21.925 6.77681 22.0934C6.76404 22.2616 6.80804 22.4086 6.90892 22.5332L8.07992 23.9175C8.1808 24.0296 8.31285 24.0982 8.47658 24.1233C8.62774 24.1359 8.7789 24.0921 8.93007 23.9924L22 13.1988L35.0701 23.9923C35.1711 24.0794 35.303 24.1228 35.4668 24.1228H35.5235C35.687 24.0982 35.8188 24.0291 35.9202 23.9172L37.0913 22.5331C37.192 22.4082 37.2361 22.2615 37.223 22.0931C37.2101 21.9252 37.1409 21.7911 37.0153 21.6913Z" fill="white"/>
</svg>
