<svg width="133" height="28" viewBox="0 0 133 28" fill="none" xmlns="http://www.w3.org/2000/svg">
<g clip-path="url(#clip0_192_611)">
<path d="M32.5223 3.30971V14.4817C32.5223 15.2476 32.0565 15.9679 31.2986 16.2566L28.7081 17.2474L15.844 22.1709L14.6203 22.6389C13.3722 23.1161 12.0298 22.1982 12.0298 20.861V5.0542C12.0298 4.87185 11.8472 4.74724 11.6767 4.81106L2.59026 8.28789C1.61313 8.66171 0.517274 8.17848 0.133725 7.20898C-0.252867 6.22428 0.237222 5.11194 1.22349 4.73508L12.0298 0.595716L13.2535 0.127682C14.5016 -0.34947 15.844 0.568364 15.844 1.90257V17.7185C15.844 17.9008 16.0266 18.0254 16.1971 17.9616L28.6168 13.2053C28.6716 13.184 28.7081 13.1324 28.7081 13.0746V6.28507C28.7081 6.18478 28.6107 6.11791 28.5194 6.15438L22.6839 8.38818C21.4359 8.86534 20.0935 7.9475 20.0935 6.61026C20.0935 6.21821 20.2152 5.84135 20.4283 5.53135C20.6414 5.22135 20.9458 4.97518 21.3172 4.83234L28.7081 2.0059L29.9318 1.53786C31.1829 1.06071 32.5223 1.97854 32.5223 3.31579V3.30971Z" fill="#6958D6"/>
<path d="M29.2866 24.5141C30.7005 24.5141 31.8466 23.3698 31.8466 21.9582C31.8466 20.5466 30.7005 19.4022 29.2866 19.4022C27.8727 19.4022 26.7266 20.5466 26.7266 21.9582C26.7266 23.3698 27.8727 24.5141 29.2866 24.5141Z" fill="#6958D6"/>
<path d="M19.6552 27.997C21.0691 27.997 22.2153 26.8527 22.2153 25.4411C22.2153 24.0295 21.0691 22.8851 19.6552 22.8851C18.2414 22.8851 17.0952 24.0295 17.0952 25.4411C17.0952 26.8527 18.2414 27.997 19.6552 27.997Z" fill="#6958D6"/>
<path d="M3.19 11.7891L5.43041 12.2389L3.40612 17.0043L7.35424 13.5427L8.61751 15.5121C9.01019 16.126 9.95689 15.8464 9.95689 15.12V8.81979C9.95689 8.30921 9.44549 7.95666 8.96757 8.13901L3.07128 10.3971C2.38941 10.6585 2.4716 11.6462 3.18695 11.7891H3.19Z" fill="#6958D6"/>
<path d="M53.8093 12.2327C53.8275 13.6459 53.4562 15.1139 52.6586 16.2627L54.1289 17.7124L52.4821 19.3566L50.9783 17.8704C50.0407 18.4722 48.8536 18.7882 47.4564 18.7882C43.0486 18.7882 41.1004 15.588 41.0822 12.3725C41.0639 9.13883 43.1003 5.9021 47.4564 5.9021C51.8124 5.9021 53.7606 9.04766 53.8123 12.2297L53.8093 12.2327ZM43.3804 12.4272C43.4169 14.4604 44.7624 16.6335 47.4533 16.6335C50.1442 16.6335 51.5963 14.2811 51.508 12.1628C51.4197 10.1661 50.3756 8.00825 47.4533 8.00825C44.531 8.00825 43.3469 10.3423 43.3804 12.4272Z" fill="#0E0F35"/>
<path d="M57.5625 9.86217V14.424C57.5625 15.7491 58.287 16.7581 59.669 16.7581C61.051 16.7581 61.9003 15.6457 61.9003 14.3176V9.86217H64.0433V18.5937H62.1134L61.9703 17.4085C61.0662 18.2929 60.2352 18.7153 59.0145 18.7153C56.9263 18.7153 55.4043 17.141 55.4043 14.4361V9.85913H57.5656L57.5625 9.86217Z" fill="#0E0F35"/>
<path d="M68.3082 7.4065C68.3082 9.08717 65.7573 9.08717 65.7573 7.4065C65.7573 5.72583 68.3082 5.72583 68.3082 7.4065ZM65.9521 9.82873V18.5785H68.1134V9.82873H65.9521Z" fill="#0E0F35"/>
<path d="M77.5496 17.4631C76.539 18.4539 75.4797 18.8429 74.186 18.8429C71.6533 18.8429 69.5469 17.3233 69.5469 14.2294C69.5469 11.1356 71.6533 9.61597 74.186 9.61597C75.4249 9.61597 76.3807 9.96851 77.3366 10.9076L75.9728 12.3391C75.4584 11.8802 74.8222 11.6492 74.2195 11.6492C72.7675 11.6492 71.7051 12.7099 71.7051 14.2294C71.7051 15.8919 72.8375 16.7763 74.1829 16.7763C74.8739 16.7763 75.5649 16.5818 76.0946 16.053L77.5466 17.4662L77.5496 17.4631Z" fill="#0E0F35"/>
<path d="M80.6121 6.22119V13.3633L83.5496 9.86213H86.1339V9.98674L82.5755 13.965L86.6301 18.4205V18.5785H84.0275L80.609 14.6367V18.5785H78.4478V6.22119H80.609H80.6121Z" fill="#0E0F35"/>
<path d="M99.0072 9.19048C98.5811 8.48235 97.4152 7.81069 96.0698 7.81069C94.3347 7.81069 93.5036 8.53402 93.5036 9.45489C93.5036 10.5338 94.7791 10.8347 96.2646 11.011C98.849 11.3301 101.257 12.0017 101.257 14.9528C101.257 17.7093 98.8124 18.8946 96.0515 18.8946C93.5189 18.8946 91.5737 18.1166 90.6514 15.8554L92.5996 14.8464C93.1475 16.208 94.5812 16.8097 96.088 16.8097C97.5948 16.8097 98.9372 16.2961 98.9372 14.9528C98.9372 13.7857 97.7166 13.3086 96.0698 13.1323C93.5371 12.8314 91.2023 12.1598 91.2023 9.38499C91.2023 6.83815 93.7167 5.79571 95.9997 5.78052C97.9297 5.78052 99.9296 6.32757 100.867 8.23618L99.0072 9.19048Z" fill="#0E0F35"/>
<path d="M105.238 6.203V11.0475C106.018 10.0385 106.974 9.74061 107.966 9.74061C110.444 9.74061 111.543 11.4213 111.543 13.9833V18.5786H109.381V14.0015C109.381 12.4121 108.55 11.7404 107.4 11.7404C106.124 11.7404 105.238 12.8193 105.238 14.1262V18.5816H103.077V6.203H105.238Z" fill="#0E0F35"/>
<path d="M122.041 14.2295C122.041 16.7399 120.325 18.7731 117.491 18.7731C114.657 18.7731 112.958 16.7399 112.958 14.2295C112.958 11.7191 114.693 9.68591 117.472 9.68591C120.252 9.68591 122.041 11.7374 122.041 14.2295ZM115.119 14.2295C115.119 15.5546 115.917 16.7915 117.491 16.7915C119.064 16.7915 119.862 15.5546 119.862 14.2295C119.862 12.9044 118.943 11.6492 117.491 11.6492C115.932 11.6492 115.119 12.9226 115.119 14.2295Z" fill="#0E0F35"/>
<path d="M123.527 22.2194V9.86211H125.545L125.688 11.0626C126.361 10.09 127.53 9.6676 128.522 9.6676C131.213 9.6676 133 11.6643 133 14.2294C133 16.7945 131.39 18.7912 128.592 18.7912C127.673 18.7912 126.309 18.5086 125.688 17.5543V22.2194H123.527ZM130.839 14.2294C130.839 12.8679 129.919 11.7555 128.361 11.7555C126.802 11.7555 125.883 12.8679 125.883 14.2294C125.883 15.591 126.894 16.7033 128.361 16.7033C129.828 16.7033 130.839 15.591 130.839 14.2294Z" fill="#0E0F35"/>
</g>
<defs>
<clipPath id="clip0_192_611">
<rect width="133" height="28" fill="white"/>
</clipPath>
</defs>
</svg>
