<svg width="84" height="67" viewBox="0 0 84 67" fill="none" xmlns="http://www.w3.org/2000/svg">
<path d="M70.0127 5.74444V25.1284C70.0127 26.4564 69.2108 27.7081 67.9022 28.2093L39.172 39.2869C37.0207 40.1171 34.7098 38.5201 34.7098 36.2029V8.76758C34.7098 8.4507 34.3947 8.23386 34.1036 8.34647L18.4486 14.3797C16.7657 15.0284 14.8772 14.1917 14.2169 12.5054C13.5482 10.7977 14.3927 8.86948 16.097 8.21199L34.7098 1.03316L36.8204 0.222583C38.9707 -0.608 41.2807 0.988952 41.2807 3.30341V30.7429C41.2807 31.0588 41.5958 31.2766 41.8888 31.1635L63.2863 22.9103C63.3821 22.874 63.4418 22.7819 63.4418 22.6818V10.9038C63.4418 10.7312 63.2743 10.6149 63.1147 10.6754L53.0612 14.5486C50.9108 15.3792 48.6008 13.7822 48.6008 11.4636C48.6008 10.7814 48.8123 10.1319 49.1792 9.59025C49.5462 9.05281 50.0728 8.62333 50.7114 8.37858L63.4418 3.47418L65.5482 2.65989C67.7023 1.82931 70.0123 3.42626 70.0123 5.74491L70.0127 5.74444Z" fill="#F4F4F4"/>
<path d="M64.4409 42.5325C66.8774 42.5325 68.8526 40.5463 68.8526 38.0962C68.8526 35.6461 66.8774 33.6599 64.4409 33.6599C62.0043 33.6599 60.0291 35.6461 60.0291 38.0962C60.0291 40.5463 62.0043 42.5325 64.4409 42.5325Z" fill="#F4F4F4"/>
<path d="M47.847 48.5802C50.2836 48.5802 52.2588 46.594 52.2588 44.1439C52.2588 41.6938 50.2836 39.7076 47.847 39.7076C45.4105 39.7076 43.4352 41.6938 43.4352 44.1439C43.4352 46.594 45.4105 48.5802 47.847 48.5802Z" fill="#F4F4F4"/>
<path d="M19.481 20.4558L23.3389 21.2338L19.8521 29.5019L26.654 23.4966L28.8321 26.9143C29.5105 27.9775 31.1421 27.4959 31.1421 26.2363V15.3047C31.1421 14.4183 30.2606 13.8083 29.4387 14.1252L19.2816 18.0403C18.1048 18.4935 18.2483 20.2068 19.481 20.4553V20.4558Z" fill="#F4F4F4"/>
<path d="M11.6329 57.8078C11.6491 59.1092 11.3095 60.4596 10.5811 61.5172L11.924 62.8513L10.4192 64.3645L9.0439 62.9979C8.18645 63.5511 7.10225 63.8438 5.82416 63.8438C1.796 63.8433 0.0163007 60.8988 0.000104799 57.9376C-0.0160911 54.9605 1.84459 51.983 5.82462 51.983C9.80465 51.983 11.5843 54.8791 11.6329 57.8073V57.8078ZM2.10326 57.9864C2.13565 59.8575 3.36515 61.8583 5.82462 61.8583C8.28408 61.8583 9.61076 59.6946 9.52978 57.7422C9.4488 55.9037 8.49417 53.9187 5.82462 53.9187C3.15507 53.9187 2.07087 56.0661 2.10326 57.986V57.9864Z" fill="#F4F4F4"/>
<path d="M15.0628 55.6273V59.8249C15.0628 61.0449 15.7263 61.9723 16.9882 61.9723C18.2501 61.9723 19.0271 60.9472 19.0271 59.7272V55.6273H20.9849V63.6642H19.2214L19.0918 62.5739C18.2668 63.3873 17.506 63.7777 16.3899 63.7777C14.4806 63.7777 13.0892 62.3297 13.0892 59.8407V55.6268H15.0632L15.0628 55.6273Z" fill="#F4F4F4"/>
<path d="M24.883 53.3659C24.883 54.9112 22.5532 54.9112 22.5532 53.3659C22.5532 51.8206 24.883 51.8201 24.883 53.3659ZM22.7313 55.5947V63.6479H24.7054V55.5947H22.7313Z" fill="#F4F4F4"/>
<path d="M33.3285 62.6233C32.4063 63.5344 31.4355 63.8922 30.2545 63.8922C27.9408 63.8922 26.0154 62.493 26.0154 59.6457C26.0154 56.7985 27.9408 55.3998 30.2545 55.3998C31.3869 55.3998 32.261 55.725 33.1346 56.5872L31.8889 57.905C31.4197 57.482 30.8371 57.2703 30.2874 57.2703C28.9607 57.2703 27.9899 58.2465 27.9899 59.6457C27.9899 61.1752 29.0255 61.9886 30.255 61.9886C30.8862 61.9886 31.5169 61.8094 32.0023 61.3213L33.329 62.6228L33.3285 62.6233Z" fill="#F4F4F4"/>
<path d="M36.1272 52.2761V58.8487L38.8129 55.6273H41.1752V55.7413L37.9231 59.4019L41.6282 63.5018V63.6484H39.2498L36.1272 60.0203V63.6484H34.1531V52.2761H36.1272Z" fill="#F4F4F4"/>
<path d="M52.9372 55.0094C52.5489 54.3589 51.4809 53.7405 50.2514 53.7405C48.6656 53.7405 47.9053 54.4077 47.9053 55.2537C47.9053 56.2462 49.07 56.5226 50.4291 56.6854C52.7914 56.9781 54.9917 57.5965 54.9917 60.3135C54.9917 62.8513 52.759 63.9415 50.2352 63.9415C47.9215 63.9415 46.1418 63.2259 45.3005 61.1431L47.0802 60.2157C47.5819 61.4684 48.8923 62.0216 50.2676 62.0216C51.6429 62.0216 52.8724 61.5498 52.8724 60.3135C52.8724 59.2395 51.7562 58.8003 50.2514 58.6379C47.9377 58.3615 45.8022 57.7431 45.8022 55.189C45.8022 52.8461 48.0997 51.8862 50.1866 51.8699C51.9501 51.8699 53.7784 52.3743 54.6359 54.1313L52.9372 55.0098V55.0094Z" fill="#F4F4F4"/>
<path d="M58.6316 52.2598V56.7175C59.3433 55.7902 60.217 55.5138 61.123 55.5138C63.3881 55.5138 64.3914 57.0595 64.3914 59.4182V63.6484H62.4173V59.4345C62.4173 57.9702 61.657 57.3522 60.6052 57.3522C59.4405 57.3522 58.6312 58.3447 58.6312 59.5485V63.6484H56.6571V52.2598H58.6316Z" fill="#F4F4F4"/>
<path d="M73.9854 59.6457C73.9854 61.956 72.4162 63.827 69.8272 63.827C67.2381 63.827 65.6852 61.956 65.6852 59.6457C65.6852 57.3355 67.271 55.4644 69.811 55.4644C72.351 55.4644 73.9854 57.3518 73.9854 59.6457ZM67.6592 59.6457C67.6592 60.8658 68.3871 62.0049 69.8272 62.0049C71.2672 62.0049 71.9951 60.8663 71.9951 59.6457C71.9951 58.4252 71.1539 57.2703 69.8272 57.2703C68.4033 57.2703 67.6592 58.4415 67.6592 59.6457Z" fill="#F4F4F4"/>
<path d="M75.344 55.6273H77.1885L77.318 56.7334C77.933 55.8386 79.0006 55.4482 79.9066 55.4482C82.3656 55.4482 84 57.2866 84 59.6457C84 62.0049 82.5276 63.8433 79.9714 63.8433C79.1301 63.8433 77.8844 63.5832 77.318 62.7047V67H75.344V55.6273ZM82.0259 59.6457C82.0259 58.3931 81.1847 57.368 79.7608 57.368C78.337 57.368 77.4957 58.3931 77.4957 59.6457C77.4957 60.8984 78.418 61.9234 79.7608 61.9234C81.1037 61.9234 82.0259 60.8984 82.0259 59.6457Z" fill="#F4F4F4"/>
</svg>
