<svg width="216" height="171" viewBox="0 0 216 171" fill="none" xmlns="http://www.w3.org/2000/svg">
<g id="Logo">
<g id="Vector">
<path d="M180.033 14.6612V64.1337C180.033 67.5231 177.971 70.7177 174.606 71.9967L100.728 100.27C95.1962 102.388 89.2538 98.3125 89.2538 92.3983V22.3769C89.2538 21.5682 88.4435 21.0148 87.695 21.3022L47.4394 36.7004C43.1117 38.3559 38.2557 36.2207 36.5577 31.9168C34.8383 27.5584 37.0099 22.637 41.3923 20.959L89.2538 2.63686L94.6809 0.568084C100.21 -1.55176 106.15 2.52404 106.15 8.4311V78.4632C106.15 79.2695 106.961 79.8253 107.714 79.5367L162.736 58.4725C162.983 58.3799 163.136 58.1447 163.136 57.8894V27.8292C163.136 27.3886 162.705 27.0917 162.295 27.2461L136.443 37.1315C130.914 39.2514 124.974 35.1756 124.974 29.2578C124.974 27.5168 125.517 25.859 126.461 24.4766C127.404 23.1049 128.759 22.0088 130.401 21.3841L163.136 8.86695L168.553 6.78867C174.092 4.66883 180.032 8.74463 180.032 14.6624L180.033 14.6612Z" fill="#F4F4F4"/>
<path d="M165.705 108.553C171.971 108.553 177.05 103.484 177.05 97.2306C177.05 90.9774 171.971 85.9081 165.705 85.9081C159.44 85.9081 154.361 90.9774 154.361 97.2306C154.361 103.484 159.44 108.553 165.705 108.553Z" fill="#F4F4F4"/>
<path d="M123.035 123.988C129.301 123.988 134.38 118.919 134.38 112.666C134.38 106.412 129.301 101.343 123.035 101.343C116.77 101.343 111.691 106.412 111.691 112.666C111.691 118.919 116.77 123.988 123.035 123.988Z" fill="#F4F4F4"/>
<path d="M50.094 52.208L60.0143 54.1936L51.0483 75.2959L68.5387 59.9688L74.1396 68.6917C75.884 71.4053 80.0796 70.1762 80.0796 66.9614V39.0614C80.0796 36.799 77.8129 35.2421 75.6996 36.0508L49.5812 46.0432C46.5553 47.1999 46.9241 51.5726 50.094 52.2068V52.208Z" fill="#F4F4F4"/>
<path d="M29.9133 147.539C29.9549 150.861 29.0815 154.307 27.2086 157.007L30.6617 160.411L26.7921 164.273L23.2558 160.786C21.0509 162.198 18.2629 162.945 14.9764 162.945C4.61829 162.943 0.0419161 155.428 0.000269483 147.871C-0.0413772 140.272 4.74323 132.673 14.9776 132.673C25.212 132.673 29.7883 140.065 29.9133 147.538V147.539ZM5.40838 147.995C5.49168 152.771 8.65325 157.877 14.9776 157.877C21.3019 157.877 24.7134 152.355 24.5052 147.372C24.2969 142.68 21.8421 137.613 14.9776 137.613C8.11304 137.613 5.32509 143.094 5.40838 147.994V147.995Z" fill="#F4F4F4"/>
<path d="M38.7328 141.974V152.687C38.7328 155.801 40.4392 158.168 43.684 158.168C46.9289 158.168 48.9267 155.552 48.9267 152.438V141.974H53.9612V162.486H49.4265L49.0933 159.704C46.9717 161.78 45.0155 162.776 42.1455 162.776C37.2359 162.776 33.6579 159.08 33.6579 152.728V141.973H38.734L38.7328 141.974Z" fill="#F4F4F4"/>
<path d="M63.985 136.202C63.985 140.146 57.9938 140.146 57.9938 136.202C57.9938 132.258 63.985 132.257 63.985 136.202ZM58.4519 141.891V162.445H63.5281V141.891H58.4519Z" fill="#F4F4F4"/>
<path d="M85.7019 159.83C83.3304 162.155 80.834 163.068 77.7974 163.068C71.8479 163.068 66.8967 159.497 66.8967 152.23C66.8967 144.963 71.8479 141.393 77.7974 141.393C80.7091 141.393 82.9568 142.224 85.2033 144.424L82.0001 147.787C80.7936 146.708 79.2955 146.168 77.8819 146.168C74.4704 146.168 71.974 148.659 71.974 152.23C71.974 156.134 74.637 158.21 77.7986 158.21C79.4216 158.21 81.0434 157.752 82.2917 156.507L85.7031 159.828L85.7019 159.83Z" fill="#F4F4F4"/>
<path d="M92.8985 133.421V150.196L99.8047 141.974H105.879V142.265L97.5165 151.608L107.044 162.072V162.446H100.928L92.8985 153.186V162.446H87.8223V133.421H92.8985Z" fill="#F4F4F4"/>
<path d="M136.124 140.397C135.126 138.737 132.379 137.158 129.218 137.158C125.14 137.158 123.185 138.861 123.185 141.021C123.185 143.554 126.18 144.259 129.675 144.675C135.749 145.422 141.407 147 141.407 153.934C141.407 160.411 135.666 163.194 129.176 163.194C123.227 163.194 118.65 161.367 116.487 156.052L121.063 153.685C122.353 156.882 125.723 158.294 129.26 158.294C132.796 158.294 135.958 157.09 135.958 153.934C135.958 151.193 133.087 150.072 129.218 149.658C123.268 148.952 117.777 147.374 117.777 140.855C117.777 134.876 123.685 132.426 129.051 132.384C133.586 132.384 138.287 133.672 140.492 138.156L136.124 140.398V140.397Z" fill="#F4F4F4"/>
<path d="M150.767 133.38V144.757C152.597 142.39 154.844 141.684 157.174 141.684C162.998 141.684 165.578 145.63 165.578 151.649V162.446H160.502V151.691C160.502 147.954 158.547 146.377 155.842 146.377C152.847 146.377 150.766 148.91 150.766 151.982V162.446H145.69V133.38H150.767Z" fill="#F4F4F4"/>
<path d="M190.248 152.23C190.248 158.127 186.213 162.902 179.556 162.902C172.898 162.902 168.905 158.127 168.905 152.23C168.905 146.334 172.983 141.559 179.514 141.559C186.045 141.559 190.248 146.375 190.248 152.23ZM173.981 152.23C173.981 155.344 175.853 158.251 179.556 158.251C183.259 158.251 185.13 155.345 185.13 152.23C185.13 149.115 182.967 146.168 179.556 146.168C175.894 146.168 173.981 149.157 173.981 152.23Z" fill="#F4F4F4"/>
<path d="M193.742 141.974H198.485L198.818 144.797C200.399 142.513 203.144 141.517 205.474 141.517C211.797 141.517 216 146.209 216 152.23C216 158.251 212.214 162.943 205.641 162.943C203.477 162.943 200.274 162.28 198.818 160.037V171H193.742V141.974ZM210.924 152.23C210.924 149.033 208.761 146.417 205.099 146.417C201.438 146.417 199.275 149.033 199.275 152.23C199.275 155.427 201.646 158.043 205.099 158.043C208.552 158.043 210.924 155.427 210.924 152.23Z" fill="#F4F4F4"/>
</g>
</g>
</svg>
