<svg width="24" height="28" viewBox="0 0 24 28" fill="none" xmlns="http://www.w3.org/2000/svg">
<g filter="url(#filter0_d_156_212)">
<path d="M11.9985 11.7154C13.0574 11.7158 13.9744 11.3364 14.7238 10.5874C15.4733 9.83857 15.8534 8.9221 15.8538 7.86314C15.8542 6.80455 15.4748 5.88766 14.7258 5.13799C13.9768 4.38869 13.0602 4.00858 12.0015 4.00818C10.9425 4.00778 10.0257 4.38719 9.2763 5.13604C8.52687 5.8849 8.14664 6.8015 8.14624 7.86021C8.14584 8.91917 8.52537 9.83606 9.27436 10.5855C10.0233 11.3348 10.9399 11.715 11.9985 11.7154Z" fill="#6958D6"/>
<path d="M18.6419 16.2964C18.6205 15.9846 18.5769 15.6445 18.5127 15.2854C18.4479 14.9235 18.3644 14.5815 18.2644 14.2688C18.1611 13.9457 18.0206 13.6265 17.8469 13.3207C17.6666 13.0032 17.4548 12.7268 17.2171 12.4993C16.9685 12.2613 16.6642 12.0699 16.3122 11.9302C15.9614 11.7913 15.5726 11.7208 15.1567 11.7207C14.9934 11.7206 14.8354 11.7875 14.5303 11.986C14.3425 12.1084 14.1228 12.2499 13.8777 12.4064C13.668 12.5399 13.384 12.6649 13.0333 12.7781C12.6911 12.8887 12.3437 12.9447 12.0008 12.9445C11.6579 12.9444 11.3106 12.8881 10.9681 12.7773C10.6178 12.664 10.3339 12.5388 10.1246 12.4051C9.88188 12.2499 9.66221 12.1082 9.4717 11.984C9.16709 11.7853 9.00903 11.7182 8.8457 11.7181C8.42969 11.718 8.04099 11.7883 7.69023 11.927C7.33837 12.0662 7.03373 12.2574 6.78474 12.4954C6.54698 12.7229 6.33484 12.999 6.15454 13.3162C5.98072 13.6219 5.83998 13.9409 5.73634 14.2642C5.63624 14.5768 5.5525 14.9187 5.48742 15.2804C5.42295 15.6391 5.37912 15.9793 5.35739 16.2917C5.33604 16.5979 5.32517 16.9156 5.32505 17.2366C5.32474 18.0718 5.58998 18.748 6.11335 19.2469C6.63025 19.7391 7.31436 19.989 8.1464 19.9893L15.8505 19.9922C16.6825 19.9926 17.3666 19.7433 17.884 19.2513C18.4079 18.7532 18.6736 18.0771 18.6739 17.2415C18.6739 16.9191 18.6632 16.6011 18.6419 16.2964Z" fill="#6958D6"/>
</g>
<defs>
<filter id="filter0_d_156_212" x="0" y="0" width="32" height="32" filterUnits="userSpaceOnUse" color-interpolation-filters="sRGB">
<feFlood flood-opacity="0" result="BackgroundImageFix"/>
<feColorMatrix in="SourceAlpha" type="matrix" values="0 0 0 0 0 0 0 0 0 0 0 0 0 0 0 0 0 0 127 0" result="hardAlpha"/>
<feOffset dy="4"/>
<feGaussianBlur stdDeviation="2"/>
<feComposite in2="hardAlpha" operator="out"/>
<feColorMatrix type="matrix" values="0 0 0 0 0 0 0 0 0 0 0 0 0 0 0 0 0 0 0.25 0"/>
<feBlend mode="normal" in2="BackgroundImageFix" result="effect1_dropShadow_156_212"/>
<feBlend mode="normal" in="SourceGraphic" in2="effect1_dropShadow_156_212" result="shape"/>
</filter>
</defs>
</svg>
