<svg width="44" height="44" viewBox="0 0 44 44" fill="none" xmlns="http://www.w3.org/2000/svg">
<path d="M21.9982 34C20.6444 34 19.5367 32.8923 19.5367 31.5385H24.4598C24.4598 32.8923 23.3644 34 21.9982 34ZM14.6136 26.6154V20.4615C14.6136 16.6831 16.6321 13.52 20.1521 12.6831V11.8462C20.1521 10.8246 20.9767 10 21.9982 10C23.0198 10 23.8444 10.8246 23.8444 11.8462V12.6831C27.3767 13.52 29.3829 16.6708 29.3829 20.4615V26.6154L30.9706 28.2031C31.7459 28.9785 31.2044 30.3077 30.109 30.3077H13.8998C12.8044 30.3077 12.2506 28.9785 13.0259 28.2031L14.6136 26.6154Z" fill="#7964FF"/>
<circle cx="29.5" cy="16.5" r="3.5" fill="#C20808"/>
</svg>
