<svg width="12" height="18" viewBox="0 0 12 18" fill="none" xmlns="http://www.w3.org/2000/svg">
<path id="XMLID_487_" d="M6 18C9.3084 18 12 15.1861 12 11.7273C12 10.1034 11.4066 8.62167 10.4348 7.5066V4.63636C10.4348 2.07987 8.44534 0 6 0C3.55466 0 1.56527 2.07987 1.56527 4.63636V7.50649C0.593374 8.62167 0 10.1034 0 11.7273C0 15.1861 2.6916 18 6 18ZM6.78261 11.9992V13.0909C6.78261 13.5428 6.43221 13.9091 6 13.9091C5.56779 13.9091 5.21739 13.5428 5.21739 13.0909V11.9992C4.9008 11.7502 4.69565 11.3543 4.69565 10.9091C4.69565 10.1572 5.28078 9.54545 6 9.54545C6.71922 9.54545 7.30435 10.1572 7.30435 10.9091C7.30435 11.3543 7.0992 11.7502 6.78261 11.9992ZM3.13049 4.63636C3.13049 2.98216 4.41777 1.63636 6 1.63636C7.58228 1.63636 8.86957 2.98216 8.86957 4.63636V6.21976C8.01663 5.73207 7.03878 5.45455 6 5.45455C4.96127 5.45455 3.98343 5.73207 3.13049 6.21971V4.63636Z" fill="#6958D6"/>
</svg>
