<svg width="10" height="16" viewBox="0 0 10 16" fill="none" xmlns="http://www.w3.org/2000/svg">
<path id="Vector" d="M7.61826 0H2.37849C1.30029 0 0.423828 0.876462 0.423828 1.95782V14.0422C0.423828 15.1204 1.30029 16 2.37849 16H7.61826C8.69654 16 9.57615 15.1204 9.57615 14.0422V1.95782C9.57615 0.876462 8.69654 0 7.61826 0ZM6.75126 0.504464L6.62203 0.863839C6.55899 1.03725 6.39504 1.15071 6.21531 1.15071H3.78143C3.60171 1.15071 3.43776 1.03725 3.37472 0.863839L3.24549 0.504464H6.75126ZM6.40135 14.9943H3.59855C3.45669 14.9943 3.34632 14.8808 3.34632 14.7421C3.34632 14.6002 3.45669 14.4898 3.59855 14.4898H6.40135C6.54005 14.4898 6.65358 14.6002 6.65358 14.7421C6.65358 14.8808 6.54005 14.9943 6.40135 14.9943Z" fill="#6958D6"/>
</svg>
