<svg width="18" height="18" viewBox="0 0 18 18" fill="none" xmlns="http://www.w3.org/2000/svg">
<g id="Vector">
<path d="M17.173 9.00062L17.9628 6.94089C18.0494 6.71366 17.9819 6.45605 17.7918 6.30194L16.0796 4.91378L15.7331 2.73481C15.6948 2.49407 15.5058 2.30621 15.2651 2.26796L13.086 1.92149L11.6989 0.208232C11.5459 0.0181201 11.2827 -0.0493752 11.0611 0.0372438L9.00015 0.828064L6.94033 0.0383687C6.71196 -0.0493753 6.4566 0.0203699 6.30248 0.209357L4.91427 1.92261L2.73521 2.26909C2.49559 2.30734 2.30659 2.49632 2.26835 2.73593L1.92186 4.91491L0.208532 6.30306C0.0195389 6.45605 -0.0490837 6.71366 0.0375385 6.94089L0.827265 9.00062L0.0375385 11.0604C-0.050209 11.2876 0.0195389 11.5452 0.208532 11.6982L1.92186 13.0852L2.26835 15.2642C2.30659 15.5049 2.49446 15.6939 2.73521 15.7322L4.91427 16.0786L6.30248 17.7908C6.4566 17.982 6.71421 18.0495 6.94146 17.9618L9.00015 17.1732L11.06 17.9629C11.1252 17.9876 11.1927 18 11.2613 18C11.4267 18 11.5898 17.9269 11.6989 17.7908L13.086 16.0786L15.2651 15.7322C15.5058 15.6939 15.6948 15.5049 15.7331 15.2642L16.0796 13.0852L17.7918 11.6982C17.9819 11.5441 18.0494 11.2876 17.9628 11.0604L17.173 9.00062Z" fill="#6958D6"/>
<path d="M6.73912 8.05462C5.60191 8.05462 4.67647 7.12921 4.67647 5.99204C4.67647 4.85488 5.60191 3.92947 6.73912 3.92947C7.87634 3.92947 8.80178 4.85488 8.80178 5.99204C8.80178 7.12921 7.87634 8.05462 6.73912 8.05462ZM6.73912 5.30452C6.3596 5.30452 6.05157 5.61253 6.05157 5.99204C6.05157 6.37156 6.3596 6.67957 6.73912 6.67957C7.11865 6.67957 7.42668 6.37156 7.42668 5.99204C7.42668 5.61253 7.11865 5.30452 6.73912 5.30452Z" fill="#FAFAFA"/>
<path d="M10.8645 14.9298C9.72725 14.9298 8.80181 14.0044 8.80181 12.8672C8.80181 11.73 9.72725 10.8046 10.8645 10.8046C12.0017 10.8046 12.9271 11.73 12.9271 12.8672C12.9271 14.0044 12.0017 14.9298 10.8645 14.9298ZM10.8645 12.1797C10.4863 12.1797 10.1769 12.4891 10.1769 12.8672C10.1769 13.2453 10.4863 13.5547 10.8645 13.5547C11.2426 13.5547 11.552 13.2453 11.552 12.8672C11.552 12.4891 11.2426 12.1797 10.8645 12.1797Z" fill="#FAFAFA"/>
<path d="M5.36411 14.9297C5.22522 14.9297 5.08634 14.8885 4.96533 14.8019C4.65593 14.5805 4.58442 14.1515 4.80582 13.8421L11.6813 4.21672C11.9027 3.90733 12.3318 3.83583 12.6412 4.05721C12.9506 4.27722 13.0207 4.70761 12.8007 5.01562L5.92515 14.641C5.78902 14.8294 5.57863 14.9297 5.36411 14.9297Z" fill="#FAFAFA"/>
</g>
</svg>
