<svg width="28" height="28" viewBox="0 0 28 28" fill="none" xmlns="http://www.w3.org/2000/svg">
<g id="Vector">
<path d="M14.6856 2.28092C14.5942 1.73049 14.3105 1.23035 13.8849 0.869516C13.4593 0.50868 12.9194 0.310555 12.3615 0.3104H9.24193C8.68397 0.310558 8.14416 0.508686 7.71858 0.869524C7.293 1.23036 7.00926 1.7305 6.91786 2.28092C6.65524 3.85624 6.3302 5.44736 6.3302 5.44736L8.19646 5.13324C8.18695 4.36734 8.31297 3.48057 8.43829 2.79753C8.49608 2.48323 8.66224 2.19915 8.90784 1.99469C9.15344 1.79024 9.46295 1.67836 9.78252 1.67852H11.821C12.1405 1.67838 12.45 1.79026 12.6956 1.99471C12.9412 2.19916 13.1074 2.48324 13.1652 2.79753C13.2905 3.48137 13.4165 4.36769 13.407 5.13324L15.2733 5.44736C15.2733 5.44736 14.9481 3.85624 14.6856 2.28092Z" fill="#595975"/>
<path d="M18.314 27.6772H19.8188C20.2772 27.6773 20.7311 27.5868 21.1545 27.4109C21.5778 27.235 21.9622 26.9771 22.2855 26.6521C22.6088 26.3271 22.8647 25.9414 23.0384 25.5172C23.2121 25.093 23.3002 24.6386 23.2977 24.1802C23.2721 19.8213 22.8715 11.78 17.6278 6.31086C17.6278 6.31086 15.9582 4.44327 12.8545 3.79496C11.5369 3.51898 10.1722 3.56369 8.8755 3.92533C7.54566 4.29745 5.84583 5.04851 5.04281 6.53635L18.314 27.6772Z" fill="#678AD0"/>
<path d="M10.6553 6.79115L11.1158 5.91193C11.1669 5.81444 11.2367 5.72798 11.3212 5.65749C11.4058 5.587 11.5034 5.53388 11.6084 5.50114C11.7135 5.46841 11.824 5.45672 11.9336 5.46674C12.0432 5.47676 12.1498 5.50829 12.2472 5.55953L14.4948 6.74177L13.5328 9.03307L10.6553 6.79115Z" fill="#E0898D"/>
<path d="M23.7616 12.8042L25.5433 11.6259C25.5922 11.5935 25.6473 11.5716 25.7051 11.5614C25.7629 11.5512 25.8221 11.553 25.8792 11.5667C25.9362 11.5805 25.9899 11.6057 26.0367 11.641C26.0836 11.6764 26.1227 11.7209 26.1516 11.772L27.2279 13.6738C27.2722 13.7522 27.2856 13.8444 27.2652 13.9321C27.2448 14.0198 27.1922 14.0967 27.1178 14.1475L26.2687 14.727C26.1057 14.8018 25.9566 14.9036 25.8276 15.0281L25.0327 15.5707C24.8634 15.6337 24.712 15.7371 24.5916 15.8717L23.7163 16.4692C23.5473 16.5329 23.3961 16.6362 23.2752 16.7703L22.3732 17.3859C22.2119 17.4636 22.0633 17.5651 21.9322 17.687L21.2507 18.1522L20.7544 17.0349L23.7616 12.8042Z" fill="white"/>
<path d="M15.6361 7.34204L14.4948 6.74177L13.7818 7.75412C13.6618 7.92424 13.4811 8.04194 13.277 8.08303C13.0729 8.12412 12.8607 8.08549 12.6842 7.97508C11.771 7.40491 11.0359 6.99612 10.6553 6.79115L9.92897 8.17774L14.0123 10.8045L15.6361 7.34204Z" fill="#B45F6D"/>
<path d="M23.7616 12.8042L17.4748 16.9618L19.0503 19.6541L21.2507 18.1522C21.254 17.9107 21.2395 17.6694 21.2073 17.4301C21.1736 17.193 21.2226 16.9514 21.3461 16.7462L23.7616 12.8042Z" fill="#CBD5EA"/>
<path d="M14.2915 9.03334L16.2039 5.4288C16.272 5.29999 16.3659 5.18659 16.4797 5.09567C16.5936 5.00475 16.7249 4.93825 16.8656 4.90032C17.0063 4.86239 17.1532 4.85384 17.2973 4.87521C17.4415 4.89658 17.5796 4.94741 17.7032 5.02453C19.8093 6.34925 21.8364 7.79573 23.7739 9.35661C23.9745 9.51804 24.1097 9.74678 24.1543 10.0003C24.199 10.2539 24.1501 10.5151 24.0168 10.7353L20.827 16.0028L14.2915 9.03334Z" fill="#FFC676"/>
<path d="M20.827 16.0028C19.7435 13.2755 16.786 10.7661 14.2915 9.03334L13.3515 10.8046L19.2894 18.5414L20.827 16.0028Z" fill="#F4914E"/>
<path d="M6.01039 6.06903C6.01039 6.06903 13.3782 10.0135 19.4067 15.8929C19.4067 15.8929 20.254 16.9708 20.5933 21.8173L1.72512 17.1281C1.54626 13.162 1.84768 6.33253 6.01039 6.06903Z" fill="#99C5F9"/>
<path d="M13.5657 16.5789H3.97149C3.18946 16.5781 2.41866 16.7668 1.72512 17.1281C1.79892 18.7632 1.95434 19.9119 1.95434 19.9119L15.6297 27.6892L18.314 27.6772C18.6312 27.6757 18.9451 27.6118 19.2376 27.4889C19.53 27.366 19.7954 27.1866 20.0185 26.961C20.2415 26.7354 20.4179 26.468 20.5375 26.1741C20.657 25.8803 20.7175 25.5657 20.7153 25.2485L20.7091 24.34C20.6859 23.4025 20.6457 22.5654 20.5933 21.8173C20.142 20.304 19.2141 18.9767 17.948 18.0329C16.6819 17.0891 15.1449 16.5792 13.5657 16.5789Z" fill="#678AD0"/>
<path d="M6.01039 6.06903C6.01039 6.06903 7.50241 7.28182 8.30276 10.5989C9.02337 13.5841 11.9906 14.647 15.6829 14.7255C16.5473 14.7406 17.3986 14.9393 18.1804 15.3085L19.4067 15.8929C19.4067 15.8929 18.178 13.6712 13.6455 10.0246C9.64593 6.80669 6.01039 6.06903 6.01039 6.06903Z" fill="#DCF4FF"/>
<path d="M4.79511 6.02356L4.80337 6.02116C4.85752 6.00548 4.91425 6.00077 4.97024 6.00733C5.02623 6.01389 5.08034 6.03158 5.12939 6.05936C5.17844 6.08714 5.22145 6.12444 5.25587 6.16908C5.29029 6.21372 5.31544 6.2648 5.32984 6.3193C5.4548 6.79763 5.63908 7.71984 5.66883 9.0765C5.67021 9.15137 5.65605 9.2257 5.62725 9.29482C5.59846 9.36394 5.55564 9.42634 5.50152 9.47808C5.44739 9.52982 5.38313 9.56978 5.31278 9.59543C5.24243 9.62108 5.16753 9.63187 5.09281 9.62712L4.88739 9.61425C4.75506 9.60588 4.63039 9.54931 4.53695 9.45525C4.44351 9.36119 4.38777 9.23614 4.38028 9.10376C4.34476 8.48866 4.31927 7.38031 4.49662 6.35749C4.51002 6.27942 4.54512 6.2067 4.5979 6.14765C4.65069 6.08859 4.71903 6.04559 4.79511 6.02356Z" fill="#616181"/>
<path d="M4.70799 17.7907H12.4109C13.9998 17.7907 15.5237 18.4219 16.6472 19.5455C17.7708 20.6691 18.402 22.1929 18.402 23.7819V24.9169C18.402 25.2809 18.3303 25.6414 18.191 25.9778C18.0516 26.3141 17.8474 26.6197 17.59 26.8772C17.3326 27.1346 17.027 27.3388 16.6906 27.4781C16.3543 27.6175 15.9938 27.6892 15.6297 27.6892H3.36838C2.66767 27.6892 1.99567 27.4108 1.50019 26.9153C1.00472 26.4199 0.726364 25.7479 0.726364 25.0471V21.7724C0.726364 20.7165 1.14586 19.7037 1.89256 18.957C2.63926 18.2103 3.652 17.7907 4.70799 17.7907Z" fill="#99C5F9"/>
<path d="M5.97602 17.482L5.9667 17.48C5.90517 17.4666 5.84159 17.4657 5.7797 17.4773C5.71781 17.4888 5.65886 17.5126 5.6063 17.5473C5.55375 17.582 5.50867 17.6268 5.47369 17.6792C5.43872 17.7315 5.41457 17.7904 5.40267 17.8522C5.29973 18.3946 5.16439 19.4362 5.23393 20.9502C5.23805 21.0337 5.25945 21.1155 5.2968 21.1903C5.33414 21.2652 5.3866 21.3315 5.45087 21.385C5.51514 21.4385 5.58982 21.4782 5.67018 21.5014C5.75055 21.5246 5.83485 21.5308 5.91777 21.5198L6.14574 21.4898C6.29255 21.4704 6.42719 21.3979 6.52417 21.286C6.62115 21.1741 6.67375 21.0306 6.67203 20.8825C6.66501 20.1944 6.60924 18.9575 6.33455 17.8312C6.31368 17.7452 6.26896 17.6668 6.20555 17.605C6.14213 17.5433 6.06258 17.5006 5.97602 17.482Z" fill="#616181"/>
<path d="M20.0041 12.3281C19.9258 12.3282 19.8504 12.2986 19.793 12.2452C18.7847 11.3052 17.7076 10.4419 16.5705 9.66238C16.5024 9.61603 16.4554 9.54449 16.44 9.4635C16.4245 9.38252 16.4419 9.29872 16.4883 9.23054C16.5346 9.16236 16.6062 9.11539 16.6871 9.09996C16.7681 9.08453 16.8519 9.1019 16.9201 9.14826C18.0828 9.94526 19.1843 10.828 20.2155 11.7892C20.2614 11.8317 20.2934 11.887 20.3073 11.9479C20.3212 12.0089 20.3165 12.0726 20.2937 12.1308C20.2708 12.189 20.231 12.2389 20.1794 12.2741C20.1277 12.3093 20.0666 12.3281 20.0041 12.3281Z" fill="#F4914E"/>
<path d="M20.5137 9.71611C20.4323 9.71622 20.3541 9.68432 20.296 9.6273C19.8224 9.16807 19.3064 8.75473 18.7548 8.39284C18.6862 8.34712 18.6386 8.27602 18.6224 8.19517C18.6062 8.11433 18.6228 8.03037 18.6685 7.96175C18.7142 7.89314 18.7853 7.8455 18.8662 7.82931C18.947 7.81312 19.031 7.82971 19.0996 7.87543C19.6837 8.25889 20.2302 8.69681 20.7317 9.18334C20.7758 9.22656 20.806 9.28195 20.8185 9.34242C20.831 9.4029 20.8252 9.46574 20.8019 9.52291C20.7785 9.58008 20.7387 9.629 20.6874 9.66343C20.6361 9.69785 20.5755 9.71614 20.5137 9.71611Z" fill="#F4914E"/>
<path d="M0.415529 25.0471C0.416398 25.8299 0.727778 26.5805 1.28135 27.1341C1.83493 27.6877 2.58549 27.9991 3.36838 28L19.8188 27.988C20.3182 27.9881 20.8127 27.8895 21.2739 27.6979C21.7351 27.5062 22.1538 27.2252 22.506 26.8711C22.8582 26.5171 23.1369 26.0969 23.3261 25.6347C23.5154 25.1725 23.6114 24.6775 23.6086 24.1781C23.6101 22.3324 23.4982 20.4883 23.2734 18.6564C23.2616 18.5756 23.2186 18.5028 23.1536 18.4535C23.0885 18.4042 23.0068 18.3825 22.9259 18.393C22.845 18.4035 22.7714 18.4454 22.7211 18.5096C22.6708 18.5738 22.6478 18.6552 22.657 18.7363C22.8802 20.5427 22.9903 22.3613 22.9869 24.1814C22.9915 24.9852 22.6901 25.7606 22.1439 26.3503C21.5977 26.94 20.8477 27.2998 20.046 27.3568C20.1128 27.3009 20.1773 27.2417 20.2396 27.1792C20.4922 26.9251 20.6918 26.6234 20.8268 26.2915C20.9619 25.9596 21.0296 25.6042 21.0262 25.2459L21.0198 24.3321C20.9618 21.9824 20.7951 20.2468 20.5971 18.9743L27.2934 14.4038C27.4313 14.3084 27.5288 14.1651 27.5667 14.0018C27.6047 13.8385 27.5804 13.6669 27.4986 13.5205L26.4224 11.6185C26.3724 11.5304 26.3049 11.4534 26.224 11.3925C26.1431 11.3315 26.0506 11.2879 25.9521 11.2642C25.8536 11.2405 25.7513 11.2374 25.6515 11.2549C25.5518 11.2725 25.4567 11.3103 25.3722 11.3662L23.0802 12.882L24.2828 10.896C24.4543 10.6111 24.517 10.2737 24.4593 9.94624C24.4017 9.61873 24.2275 9.32314 23.969 9.11398C22.0214 7.54627 19.9844 6.09294 17.8684 4.7613C17.6285 4.61098 17.3479 4.53879 17.0653 4.5547C16.7827 4.5706 16.5119 4.67382 16.2904 4.85011C15.9932 4.66264 15.6864 4.49071 15.3713 4.33501C15.268 3.79451 15.1227 3.01174 14.9923 2.23021C14.8903 1.60651 14.5695 1.03952 14.0874 0.630845C13.6053 0.222174 12.9935 -0.00146326 12.3615 8.21367e-06H9.24193C8.60995 -0.00156175 7.99807 0.221978 7.51594 0.630568C7.03381 1.03916 6.71294 1.60609 6.61084 2.22977C6.44103 3.24966 6.24325 4.28226 6.13455 4.8367C5.76743 5.10286 5.44018 5.42006 5.1627 5.77871C5.02801 5.73783 4.88438 5.73679 4.74911 5.77569L4.74085 5.77809H4.73979C4.6122 5.81565 4.49717 5.88706 4.40692 5.98475C4.31666 6.08243 4.25455 6.20274 4.22717 6.33289C0.971391 8.45358 1.25265 15.7835 1.53214 18.8875C0.812945 19.6761 0.414655 20.7052 0.415529 21.7724V25.0471ZM25.7148 11.8854C25.7282 11.8765 25.7432 11.8705 25.759 11.8678C25.7748 11.865 25.791 11.8655 25.8066 11.8692C25.8222 11.873 25.8368 11.8799 25.8496 11.8895C25.8625 11.8991 25.8731 11.9113 25.8811 11.9253L26.9573 13.827C26.9633 13.8375 26.9652 13.8499 26.9624 13.8617C26.9597 13.8736 26.9526 13.8839 26.9425 13.8907L26.1474 14.4334L25.9343 14.0714C25.8923 14.0006 25.824 13.9493 25.7443 13.9288C25.6647 13.9082 25.5801 13.9201 25.5092 13.9619C25.4383 14.0036 25.3868 14.0718 25.366 14.1514C25.3453 14.231 25.3569 14.3156 25.3985 14.3866L25.6327 14.7847L24.9113 15.2771L24.6874 14.8965C24.6667 14.8612 24.6393 14.8303 24.6067 14.8056C24.5741 14.7809 24.537 14.7629 24.4974 14.7526C24.4578 14.7423 24.4166 14.7399 24.3761 14.7455C24.3356 14.7511 24.2966 14.7647 24.2614 14.7855C24.2261 14.8062 24.1953 14.8337 24.1707 14.8664C24.1461 14.899 24.1282 14.9362 24.118 14.9758C24.1078 15.0154 24.1055 15.0567 24.1113 15.0971C24.117 15.1376 24.1307 15.1766 24.1516 15.2118L24.3967 15.6284L23.5949 16.1756L23.126 15.3787C23.1056 15.343 23.0783 15.3117 23.0456 15.2866C23.013 15.2615 22.9758 15.2432 22.936 15.2326C22.8962 15.222 22.8548 15.2195 22.814 15.225C22.7732 15.2306 22.734 15.2442 22.6985 15.2651C22.6631 15.286 22.6321 15.3137 22.6074 15.3466C22.5827 15.3795 22.5648 15.417 22.5548 15.4569C22.5447 15.4968 22.5426 15.5383 22.5487 15.579C22.5548 15.6196 22.5689 15.6587 22.5902 15.6939L23.0802 16.5269L22.2519 17.0923L22.0336 16.7215C22.013 16.6862 21.9856 16.6553 21.953 16.6306C21.9204 16.6059 21.8832 16.5878 21.8437 16.5775C21.8041 16.5672 21.7629 16.5648 21.7224 16.5705C21.6819 16.5761 21.6429 16.5897 21.6076 16.6104C21.5724 16.6312 21.5416 16.6587 21.517 16.6913C21.4924 16.724 21.4745 16.7612 21.4643 16.8008C21.4541 16.8404 21.4518 16.8816 21.4575 16.9221C21.4633 16.9626 21.477 17.0015 21.4978 17.0367L21.7376 17.4437L20.482 18.3007C20.4235 17.989 20.3636 17.712 20.3044 17.4664L22.328 14.1246C22.3294 14.1238 22.3307 14.1234 22.3319 14.1226L25.7148 11.8854ZM16.4785 5.5748C16.5267 5.48299 16.5935 5.40222 16.6746 5.33766C16.7558 5.2731 16.8495 5.22617 16.9498 5.19985C17.0485 5.1729 17.1519 5.16682 17.2531 5.182C17.3544 5.19719 17.4513 5.2333 17.5379 5.28803C19.6333 6.60695 21.6505 8.04638 23.5791 9.59906C23.7206 9.71356 23.816 9.87538 23.8475 10.0547C23.8791 10.2339 23.8448 10.4186 23.7509 10.5746L20.0736 16.6469C19.8827 16.0667 19.7244 15.8062 19.6698 15.7269C19.546 15.5104 18.2788 13.4039 14.1237 10.0128L16.4785 5.5748ZM13.4507 10.2671C16.1661 12.4518 17.687 14.1265 18.4584 15.0969C18.4584 15.0969 16.9825 14.4309 15.6896 14.4151C11.5897 14.3643 9.20641 13.0194 8.60489 10.5261C8.14308 8.6122 7.45578 7.37632 6.93526 6.65465C8.26848 7.09337 10.7874 8.12428 13.4507 10.2671ZM10.5885 7.58866L11.3911 6.05607C11.4232 5.99474 11.4671 5.94035 11.5202 5.896C11.5733 5.85164 11.6347 5.8182 11.7007 5.79758C11.7668 5.77695 11.8363 5.76956 11.9052 5.77582C11.9741 5.78207 12.0411 5.80186 12.1024 5.83404L14.8657 7.2876L13.6307 9.61531C12.6718 8.86035 11.6546 8.18267 10.5885 7.58866ZM7.22452 2.33199C7.30265 1.85362 7.5486 1.41871 7.91829 1.10522C8.28797 0.791732 8.75722 0.620152 9.24193 0.621236H12.3615C12.8462 0.620149 13.3155 0.791725 13.6852 1.10521C14.0549 1.4187 14.3008 1.85361 14.379 2.33199C14.479 2.9319 14.5879 3.53252 14.6801 4.02533C14.3323 3.88461 13.977 3.76305 13.6159 3.66121C13.5776 3.36814 13.5294 3.05988 13.4709 2.74069C13.4001 2.35481 13.1962 2.00597 12.8947 1.7549C12.5933 1.50383 12.2133 1.36643 11.821 1.36662H9.78252C9.39019 1.36643 9.01022 1.50383 8.70875 1.7549C8.40728 2.00597 8.2034 2.35481 8.1326 2.74069C8.05827 3.14602 8.00081 3.5319 7.95942 3.89309C7.5801 4.02959 7.21119 4.19346 6.8556 4.38341C6.96395 3.81565 7.10143 3.07071 7.22452 2.33199ZM12.9661 3.50126C11.5174 3.27395 10.038 3.33431 8.61262 3.67888C8.64814 3.41512 8.69196 3.1398 8.74406 2.85295C8.78866 2.61011 8.917 2.3906 9.10674 2.23263C9.29649 2.07466 9.53562 1.98823 9.78252 1.98838H11.821C12.0679 1.98822 12.307 2.07464 12.4967 2.2326C12.6865 2.39055 12.8148 2.61004 12.8594 2.85286C12.9002 3.07536 12.9358 3.29149 12.9661 3.50126ZM8.95907 4.22462C10.208 3.87753 11.5219 3.83451 12.7909 4.09913C13.8917 4.3277 14.9439 4.74797 15.8992 5.34079L15.157 6.73884L12.3919 5.2843C12.2583 5.21405 12.1122 5.17083 11.9619 5.1571C11.8116 5.14337 11.66 5.15941 11.5159 5.2043C11.3718 5.24918 11.238 5.32204 11.1221 5.4187C11.0062 5.51536 10.9105 5.63392 10.8404 5.76761L10.0411 7.29426C7.84734 6.15473 6.75889 5.91805 6.01581 5.75109C6.68562 5.09212 7.65534 4.58945 8.95907 4.22462ZM4.83366 6.46379C4.83702 6.44328 4.84612 6.42414 4.8599 6.40858C4.87368 6.39302 4.89159 6.38168 4.91154 6.37587L4.91972 6.37356C4.93438 6.3693 4.94974 6.36803 4.96491 6.36982C4.98007 6.3716 4.99472 6.37641 5.00799 6.38395C5.02079 6.39107 5.03199 6.40073 5.04091 6.41234C5.04983 6.42394 5.05628 6.43725 5.05986 6.45145C5.16989 6.87285 5.35906 7.78218 5.38846 9.1368C5.38238 9.19875 5.3542 9.25644 5.30907 9.29931C5.26395 9.34219 5.2049 9.36738 5.14272 9.37028L4.93739 9.35732C4.8809 9.35364 4.8277 9.32941 4.78783 9.28922C4.74796 9.24902 4.72418 9.19563 4.72096 9.13911C4.68854 8.57117 4.6595 7.46824 4.83366 6.46379ZM1.0372 21.7724C1.03719 21.2904 1.13213 20.813 1.3166 20.3677C1.50107 19.9223 1.77145 19.5176 2.11232 19.1768C2.45318 18.8359 2.85785 18.5655 3.30322 18.381C3.74859 18.1965 4.22593 18.1016 4.70799 18.1016H5.02576C4.90321 19.0153 4.86675 19.9385 4.91687 20.859C4.92302 20.9611 4.94285 21.062 4.97584 21.1588C5.20799 21.8728 6.18029 21.7112 6.18029 21.7112C6.40233 21.6817 6.6059 21.5719 6.75264 21.4027C6.89938 21.2335 6.97915 21.0164 6.97691 20.7924C6.96999 20.1218 6.91475 18.8132 6.62079 17.6328C6.58671 17.4953 6.51317 17.3708 6.40921 17.2745C6.30526 17.1783 6.17543 17.1145 6.0357 17.0911L6.02629 17.089C5.89675 17.0596 5.76177 17.0645 5.63473 17.1033C5.43768 17.1639 5.27202 17.299 5.17291 17.4797H4.70799C3.76978 17.4789 2.85742 17.7871 2.11189 18.3567C1.91278 15.7409 1.71669 9.47286 4.11607 7.20953C4.06727 7.86361 4.06214 8.52022 4.10071 9.17499C4.11283 9.38314 4.20065 9.57966 4.34763 9.72754C4.49461 9.87542 4.6906 9.96444 4.89867 9.97783C4.89867 9.97783 5.49583 10.0084 5.74903 9.75448C5.83286 9.67229 5.89922 9.574 5.94412 9.46552C5.98902 9.35705 6.01153 9.24061 6.0103 9.12321C5.98162 7.81602 5.81492 6.89825 5.67425 6.34514C5.73806 6.34192 5.80204 6.34549 5.8651 6.3558C6.12265 6.59665 7.31564 7.83405 8.00054 10.672C8.67701 13.4741 11.2599 14.9215 15.6763 15.0365C16.2585 15.0492 16.837 15.1324 17.3992 15.2842C17.966 15.4399 18.4805 15.7453 18.8885 16.1684C19.2965 16.5914 19.5831 17.1166 19.7181 17.6887C20.0063 18.9112 20.3148 20.9747 20.3981 24.3424L20.404 25.2068C20.4133 25.7532 20.2149 26.2827 19.8489 26.6885C19.6536 26.9017 19.4163 27.072 19.1518 27.1887C18.8873 27.3054 18.6015 27.366 18.3125 27.3665L17.4944 27.3702C17.8729 27.083 18.1799 26.7121 18.3913 26.2865C18.6027 25.8609 18.7127 25.3922 18.7127 24.917V23.782C18.7127 22.1107 18.0488 20.5077 16.8669 19.3259C15.6851 18.144 14.0822 17.4801 12.4108 17.4801H7.7263C7.64453 17.4784 7.5652 17.5079 7.50431 17.5625C7.44343 17.6171 7.40555 17.6928 7.39832 17.7742C7.39605 17.8164 7.40241 17.8586 7.41701 17.8983C7.43161 17.938 7.45415 17.9742 7.48324 18.0049C7.51233 18.0355 7.54737 18.0599 7.58622 18.0766C7.62506 18.0932 7.66689 18.1018 7.70916 18.1017H12.4113C13.9178 18.1017 15.3626 18.7002 16.4279 19.7655C17.4931 20.8307 18.0916 22.2755 18.0916 23.782V24.917C18.0916 25.5685 17.8333 26.1934 17.3734 26.6547C16.9135 27.1161 16.2895 27.3764 15.638 27.3785H3.36838C2.75011 27.3785 2.15717 27.1329 1.71999 26.6957C1.28281 26.2585 1.0372 25.6656 1.0372 25.0473V21.7724ZM5.70213 17.8232C5.70606 17.8024 5.71413 17.7827 5.72586 17.7651C5.7376 17.7474 5.75275 17.7324 5.77043 17.7208C5.79715 17.703 5.82849 17.6935 5.86057 17.6934C5.87251 17.6934 5.88442 17.6946 5.89609 17.6971L5.90498 17.6991C5.93439 17.7056 5.96138 17.7202 5.98283 17.7414C6.00427 17.7625 6.01931 17.7893 6.0262 17.8186C6.29725 18.9287 6.34876 20.1624 6.3548 20.7993C6.35561 20.8714 6.33 20.9413 6.28282 20.9958C6.23564 21.0503 6.17013 21.0856 6.09867 21.0952C6.09867 21.0952 5.55551 21.255 5.53828 20.8494C5.47407 19.3335 5.61119 18.3029 5.70213 17.8232Z" fill="#3C3C4F"/>
</g>
</svg>
