<svg width="36" height="28" viewBox="0 0 36 28" fill="none" xmlns="http://www.w3.org/2000/svg">
<g id="Vector">
<path d="M35.0458 25.0443C34.9023 25.3364 34.6871 25.6284 34.4719 25.7745C33.6828 26.4316 32.5351 27.0887 30.8852 27.5268C22.0618 30.3744 7.93012 19.6412 1.97615 14.7491C0.46973 13.5079 0.326261 11.2444 1.61748 9.71106L9.72348 0.438093C9.93869 0.219046 10.2256 0 10.5843 0C11.3734 0 11.3734 0.730155 11.3016 1.24126C11.2299 1.75237 11.1582 2.26348 11.2299 2.8476C11.4451 6.86345 13.7406 7.95869 16.1796 7.88567C17.1839 7.88567 18.1164 7.66663 19.049 7.44758C20.3402 7.0825 21.3445 6.64441 21.6314 6.49838H21.7031L27.8723 17.3777C27.8723 17.3777 33.3241 20.0793 34.8306 22.8538C35.1892 23.584 35.3327 24.3142 35.0458 25.0443Z" fill="#65B9FF"/>
<path d="M11.3734 1.09523C10.7995 1.24126 11.2299 1.09523 2.6935 10.7333C1.61748 11.9745 1.54575 13.7269 2.40656 14.9682C2.26309 14.8952 2.11962 14.7491 2.04789 14.6761C0.541464 13.4348 0.397995 11.1714 1.68922 9.71106L9.72348 0.438093C9.93869 0.146031 10.2974 0 10.5843 0C11.3016 0 11.3734 0.657139 11.3734 1.09523Z" fill="#3E7FFF"/>
<path d="M24.5008 16.0634L23.4965 16.6475L15.8926 21.1745L15.0318 19.7872L22.277 15.4793L23.64 14.6031L24.5008 16.0634Z" fill="#3E7FFF"/>
<path d="M22.564 12.9968L21.1293 13.8729L12.4494 19.057L11.5886 17.6697L20.2685 12.4856L21.7749 11.6095L22.564 12.9968Z" fill="#3E7FFF"/>
<path d="M20.7706 10.0031L19.4076 10.8793L9.22134 16.9396L8.36053 15.5523L18.762 9.34598L19.9815 8.61583L20.7706 10.0031Z" fill="#3E7FFF"/>
<path d="M35.0458 25.0443C34.9023 25.3364 34.6871 25.6284 34.4719 25.7745C33.6828 26.4316 32.5351 27.0887 30.8852 27.5268C22.0618 30.3744 7.93012 19.6412 1.97615 14.7491C0.46973 13.5079 0.326261 11.2444 1.61748 9.71106L3.48258 7.59361C2.83697 8.9809 3.19564 10.7333 4.41513 11.7555C10.2974 16.6475 24.5008 27.3808 33.2524 24.5332C33.9697 24.3142 34.6154 24.0951 35.1892 23.803C35.1892 24.2411 35.1892 24.6062 35.0458 25.0443Z" fill="#DEDDFF"/>
<path d="M35.0458 25.0443C34.9023 25.3364 34.6871 25.6284 34.4719 25.7745C33.6828 26.4316 32.5351 27.0887 30.8852 27.5268C22.277 30.3014 8.50399 20.0793 2.40656 15.0412C2.26309 14.9682 2.11962 14.8221 2.04789 14.7491C0.541464 13.5079 0.397995 11.2444 1.68922 9.78407L3.55431 7.66662C3.19564 8.39678 3.19564 9.27297 3.41084 10.0761C3.62605 10.7333 3.98472 11.3174 4.48686 11.7555C10.3691 16.6475 24.5725 27.3808 33.3241 24.5332C34.0415 24.3142 34.6871 24.0951 35.261 23.803C35.1892 24.2411 35.1892 24.6062 35.0458 25.0443Z" fill="#DEDDFF"/>
<path d="M3.33911 10.0761L2.6935 10.8063C1.61748 12.0476 1.54575 13.7999 2.40656 15.0412C2.26309 14.9682 2.11962 14.8221 2.04789 14.7491C0.541464 13.5079 0.397995 11.2444 1.68922 9.78407L3.55431 7.66662C3.12391 8.39678 3.05217 9.27297 3.33911 10.0761Z" fill="#C6C6F7"/>
<path d="M34.974 25.1173C34.8306 25.4094 34.6871 25.6284 34.4002 25.7745C33.6111 26.4316 32.4633 27.0887 30.8134 27.5268C22.0618 30.3744 7.93012 19.6412 1.97615 14.7491C0.46973 13.5079 0.326261 11.2444 1.61748 9.71106L2.40656 8.83487C1.40228 10.2952 1.61748 12.4856 3.05217 13.6539C8.9344 18.5459 23.1378 29.2792 31.8894 26.4316C33.1807 26.1395 34.1849 25.6284 34.974 25.1173Z" fill="#5B5E8B"/>
<path d="M21.9183 2.26348L21.7749 5.40314L21.7031 6.42536H21.6314C21.201 6.64441 18.6186 7.73964 16.1796 7.81266V6.35235C16.1796 3.57776 18.4034 1.31428 21.1293 1.31428C21.5597 1.38729 21.9901 1.82539 21.9183 2.26348Z" fill="#65B9FF"/>
<path d="M27.8723 17.3777C22.4205 17.8888 19.049 7.44758 19.049 7.44758C20.3402 7.0825 21.3445 6.64441 21.6314 6.49838H21.7031L27.8723 17.3777Z" fill="#65B9FF"/>
<path d="M21.2727 5.69521L21.7749 5.47616L21.7031 6.49838H21.6314C21.201 6.71742 19.1924 7.59361 17.0404 7.81266C16.7535 7.81266 16.4665 7.88567 16.2513 7.88567V6.42536C16.2513 3.65077 18.4751 1.38729 21.1293 1.38729C21.4879 1.38729 21.7749 1.60634 21.9183 1.8984C19.9098 1.8984 18.1882 3.13967 17.4708 4.96505C17.1121 5.84124 17.9012 6.86345 18.8338 6.64441C20.0533 6.27933 20.9858 5.84124 21.2727 5.69521Z" fill="#3E7FFF"/>
<path d="M34.8306 22.8538C23.4248 24.8253 27.8723 17.3777 27.8723 17.3777C27.8723 17.3777 33.3241 20.0793 34.8306 22.8538Z" fill="#DEDDFF"/>
<path d="M27.5854 14.4571C27.5854 14.6761 27.4419 14.8221 27.2267 14.8221H24.5725C24.3573 14.8221 24.2139 14.6761 24.2139 14.4571C24.2139 14.238 24.3573 14.092 24.5725 14.092H27.2267C27.4419 14.092 27.5854 14.311 27.5854 14.4571Z" fill="#5B5E8B"/>
<path d="M26.0072 14.8952H24.5725C24.3573 14.8952 24.2139 14.7491 24.2139 14.5301C24.2139 14.311 24.3573 14.165 24.5725 14.165H26.0072C25.792 14.165 25.6485 14.311 25.6485 14.5301C25.6485 14.6761 25.792 14.8952 26.0072 14.8952Z" fill="#312E4B"/>
<path d="M26.4376 12.4856C26.4376 12.7047 26.2942 12.8507 26.0789 12.8507H23.4248C23.2096 12.8507 23.0661 12.7047 23.0661 12.4856C23.0661 12.2666 23.2096 12.1206 23.4248 12.1206H26.0789C26.2942 12.1206 26.4376 12.2666 26.4376 12.4856Z" fill="#5B5E8B"/>
<path d="M24.8595 12.8507H23.4248C23.2096 12.8507 23.0661 12.7047 23.0661 12.4856C23.0661 12.2666 23.2096 12.1206 23.4248 12.1206H24.8595C24.6443 12.1206 24.5008 12.2666 24.5008 12.4856C24.5008 12.6317 24.6443 12.8507 24.8595 12.8507Z" fill="#312E4B"/>
<path d="M24.0704 8.39678C24.0704 8.61582 23.9269 8.76186 23.7117 8.76186H21.0575C20.8423 8.76186 20.6989 8.61582 20.6989 8.39678C20.6989 8.17773 20.8423 8.0317 21.0575 8.0317H23.7117C23.9269 8.0317 24.0704 8.17773 24.0704 8.39678Z" fill="#5B5E8B"/>
<path d="M22.4922 8.76186H21.0575C20.8423 8.76186 20.6989 8.61582 20.6989 8.39678C20.6989 8.17773 20.8423 8.0317 21.0575 8.0317H22.4922C22.277 8.0317 22.1335 8.17773 22.1335 8.39678C22.1335 8.61582 22.277 8.76186 22.4922 8.76186Z" fill="#312E4B"/>
<path d="M25.4333 10.4412C25.4333 10.6603 25.2899 10.8063 25.0747 10.8063H22.4205C22.2053 10.8063 22.0618 10.6603 22.0618 10.4412C22.0618 10.2222 22.2053 10.0761 22.4205 10.0761H25.0747C25.2899 10.0761 25.4333 10.2222 25.4333 10.4412Z" fill="#5B5E8B"/>
<path d="M23.8552 10.8063H22.4205C22.2053 10.8063 22.0618 10.6603 22.0618 10.4412C22.0618 10.2222 22.2053 10.0761 22.4205 10.0761H23.8552C23.64 10.0761 23.4965 10.2222 23.4965 10.4412C23.4965 10.6603 23.64 10.8063 23.8552 10.8063Z" fill="#312E4B"/>
<path d="M2.40656 15.0412C2.26309 14.9682 2.11962 14.8221 2.04789 14.7491C0.541464 13.5079 0.397995 11.2444 1.68922 9.78407L2.4783 8.90789C1.83269 9.85709 1.68922 11.0253 2.04789 12.1206C1.61748 13.0698 1.76095 14.165 2.40656 15.0412Z" fill="#312E4B"/>
</g>
</svg>
