<svg width="28" height="28" viewBox="0 0 28 28" fill="none" xmlns="http://www.w3.org/2000/svg">
<g id="Vector">
<path d="M3.82633 0.741999C3.52169 0.988022 3.33484 1.35481 3.31283 1.75C3.17529 4.396 3.22572 7.87733 1.09379 9.954L0.704084 10.2667C0.704084 3.094 2.81309 1.39533 3.82633 0.741999Z" fill="#C81E1E"/>
<path d="M13.2848 1.76867C13.2848 4.78333 11.6572 7.224 9.64443 7.224C7.63171 7.224 6.00411 4.78333 6.00411 1.76867C6.00452 1.33266 6.03824 0.897348 6.10497 0.466666H6.13248C6.25036 0.465279 6.35949 0.529779 6.41674 0.634666C6.66432 1.05933 7.50792 2.156 9.64443 2.156C11.7809 2.156 12.6246 1.05933 12.8721 0.634666C12.9294 0.529779 13.0385 0.465279 13.1564 0.466666H13.1839C13.2506 0.897348 13.2844 1.33266 13.2848 1.76867Z" fill="#C81E1E"/>
<path d="M18.5848 10.2667C18.5848 10.8827 18.571 11.536 18.5389 12.2314C14.8682 12.8276 12.1669 16.0499 12.1661 19.8334C12.1661 19.9127 12.1661 19.9874 12.1707 20.0667H2.02909C1.67703 20.0662 1.3396 19.9233 1.09109 19.6695C0.842574 19.4157 0.703357 19.0717 0.704087 18.7134L0.704084 10.2667L1.09379 9.954C3.22572 7.87733 3.17529 4.396 3.31283 1.75C3.33484 1.35481 3.52169 0.988022 3.82633 0.741999C3.85583 0.72015 3.88644 0.69995 3.91803 0.681383C4.13126 0.541443 4.37955 0.466922 4.63326 0.466716L6.10497 0.466666C6.03824 0.897348 6.00452 1.33266 6.00411 1.76867C6.00411 4.78333 7.63171 7.224 9.64443 7.224C11.6572 7.224 13.2848 4.78333 13.2848 1.76867C13.2844 1.33266 13.2506 0.897348 13.1839 0.466666L14.6556 0.466716C14.9017 0.466679 15.1429 0.536146 15.3525 0.667383C15.3627 0.671936 15.372 0.678252 15.38 0.68605C15.7332 0.924418 15.9544 1.31924 15.976 1.75005C15.9852 1.94138 15.9944 2.13738 16.0035 2.32872C16.0311 2.96338 16.0586 3.59338 16.109 4.22338C16.1548 4.87635 16.2375 5.52608 16.3566 6.16938C16.4749 6.80505 16.6594 7.42609 16.9068 8.02205C17.1636 8.64971 17.525 9.22752 17.975 9.73005C18.0828 9.84615 18.1977 9.95525 18.3189 10.0567C18.406 10.1267 18.5023 10.192 18.5848 10.2667Z" fill="#F44335"/>
<path d="M8.269 7.224C8.50168 7.22292 8.7331 7.18916 8.95672 7.12367C7.2741 6.64207 6.00411 4.43053 6.00411 1.76867C6.00452 1.33266 6.03824 0.897348 6.10497 0.466666L4.72953 0.466666C4.6628 0.897348 4.62908 1.33266 4.62867 1.76867C4.62867 4.78333 6.25627 7.224 8.269 7.224Z" fill="#C81E1E"/>
<path d="M18.3189 10.0567C18.1977 9.95525 18.0828 9.84615 17.975 9.73005C17.525 9.22752 17.1636 8.64971 16.9068 8.02205C16.6594 7.42609 16.4749 6.80505 16.3566 6.16938C16.2375 5.52608 16.1548 4.87635 16.109 4.22338C16.0586 3.59338 16.0311 2.96338 16.0035 2.32872C15.9944 2.13738 15.9852 1.94138 15.976 1.75005C15.9544 1.31924 15.7332 0.924418 15.38 0.68605C15.372 0.678252 15.3627 0.671936 15.3525 0.667383C15.1429 0.536146 14.9017 0.466679 14.6556 0.466716L13.2802 0.466666C13.5262 0.466629 13.7675 0.536095 13.9771 0.667333C13.9872 0.671886 13.9965 0.678202 14.0046 0.685999C14.3578 0.924367 14.579 1.31918 14.6006 1.75C14.6098 1.94133 14.6189 2.13733 14.6281 2.32867C14.6556 2.96333 14.6831 3.59333 14.7336 4.22333C14.7794 4.87629 14.862 5.52603 14.9811 6.16933C15.0995 6.80499 15.2839 7.42604 15.5313 8.022C15.7882 8.64966 16.1496 9.22747 16.5996 9.73C16.7074 9.8461 16.8222 9.9552 16.9434 10.0567C17.0305 10.1267 17.1268 10.192 17.2093 10.2667C17.2093 10.8827 17.1956 11.536 17.1635 12.2313C13.4928 12.8275 10.7915 16.0498 10.7906 19.8333C10.7906 19.9127 10.7906 19.9873 10.7952 20.0667L12.1707 20.0667C12.1661 19.9874 12.1661 19.9127 12.1661 19.8334C12.1669 16.0499 14.8682 12.8276 18.5389 12.2314C18.571 11.536 18.5848 10.8827 18.5848 10.2667C18.5023 10.192 18.406 10.1267 18.3189 10.0567Z" fill="#C81E1E"/>
<path d="M18.5848 10.2667C18.5023 10.192 18.406 10.1267 18.3189 10.0567C18.1977 9.95525 18.0828 9.84615 17.975 9.73005C17.525 9.22752 17.1636 8.64971 16.9068 8.02205C16.6594 7.42609 16.4749 6.80505 16.3566 6.16938C16.2375 5.52608 16.1548 4.87635 16.109 4.22338C16.0586 3.59338 16.0311 2.96338 16.0035 2.32872C15.9944 2.13738 15.9852 1.94138 15.976 1.75005C15.9544 1.31924 15.7332 0.924418 15.38 0.68605C16.3474 1.25072 18.5802 2.88405 18.5848 10.2667Z" fill="#C81E1E"/>
<path d="M15.3525 0.667383C15.3245 0.648539 15.2954 0.631348 15.2654 0.615999L15.3525 0.667383Z" fill="#F44335"/>
<path d="M27.2959 19.8333C27.2784 24.0277 23.966 27.4362 19.8457 27.4997C15.7254 27.5633 12.313 24.2586 12.1707 20.0667C12.1661 19.9874 12.1661 19.9127 12.1661 19.8334C12.1669 16.0499 14.8682 12.8276 18.5389 12.2314C18.933 12.1654 19.3317 12.1325 19.731 12.1333C23.909 12.1333 27.2959 15.5807 27.2959 19.8333Z" fill="#FF9801"/>
<path d="M19.731 12.1333C19.4972 12.1333 19.2675 12.1469 19.0405 12.1688C22.9375 12.527 25.9222 15.8523 25.9214 19.8351C25.9205 23.8178 22.9345 27.1419 19.0373 27.4983C19.2665 27.5193 19.4958 27.5333 19.731 27.5333C23.909 27.5333 27.2959 24.0859 27.2959 19.8333C27.2959 15.5807 23.909 12.1333 19.731 12.1333Z" fill="#F57C00"/>
<path d="M4.8304 18.6667H2.538C2.28479 18.6667 2.07952 18.4577 2.07952 18.2V16.8C2.07952 16.5423 2.28479 16.3333 2.538 16.3333C2.79121 16.3333 2.99648 16.5423 2.99648 16.8V17.7333H4.8304C5.08361 17.7333 5.28888 17.9423 5.28888 18.2C5.28888 18.4577 5.08361 18.6667 4.8304 18.6667Z" fill="#F5F5F5"/>
<path d="M10.3322 19.6H2.02909C1.54978 19.5975 1.16256 19.2013 1.16256 18.7134V10.4921L1.41106 10.2914C3.48155 8.27404 3.62277 5.07971 3.73601 2.51258C3.74747 2.26104 3.75848 2.01418 3.7704 1.77431C3.79235 1.30495 4.17161 0.935328 4.63325 0.933376H5.58827C5.56168 1.20918 5.54242 1.48684 5.54242 1.76638C5.54242 5.03304 7.38184 7.69304 9.64306 7.69304C11.9043 7.69304 13.7437 5.03304 13.7437 1.76638C13.7437 1.48638 13.7258 1.20918 13.6979 0.933376H14.6556C14.8124 0.934959 14.9661 0.977889 15.1017 1.05798L15.1269 1.07524C15.3586 1.23271 15.5037 1.49213 15.5185 1.77524L15.5506 2.47524C15.5772 3.07118 15.6038 3.66711 15.6501 4.26258C15.6975 4.93353 15.7835 5.60108 15.9077 6.26178C16.031 6.9306 16.2242 7.58407 16.484 8.21104C16.7634 8.88698 17.1552 9.50883 17.6422 10.0492C17.764 10.183 17.895 10.3077 18.0342 10.4226C18.0722 10.4534 18.1112 10.4828 18.1506 10.5126C18.19 10.5425 18.2368 10.5766 18.2762 10.6125C18.4634 10.7858 18.7531 10.7721 18.9236 10.5817C19 10.4954 19.0414 10.3829 19.0396 10.2667H19.0433C19.0433 3.07491 17.0163 1.08178 15.4914 0.208643L15.4887 0.214243C15.2322 0.0751432 14.9463 0.00163067 14.6556 4.29088e-05H13.1564C12.8762 -0.00293132 12.6165 0.148902 12.4778 0.39671C12.2514 0.785443 11.5215 1.68938 9.64444 1.68938C7.76742 1.68938 7.03752 0.785443 6.81608 0.40511C6.67789 0.153248 6.41589 -0.00200122 6.13248 4.29088e-05H4.63325C4.29344 -6.46205e-05 3.96079 0.099408 3.67503 0.286576V0.28331C2.73561 0.878776 0.245605 2.45984 0.245605 10.2667V18.7134C0.245602 19.7167 1.04336 20.5308 2.02909 20.5334H10.3322C10.5854 20.5334 10.7906 20.3244 10.7906 20.0667C10.7906 19.809 10.5854 19.6 10.3322 19.6ZM18.1071 9.16398C17.7886 8.76093 17.5264 8.31511 17.3276 7.83911C17.0936 7.27286 16.9198 6.68275 16.8091 6.07884C16.6916 5.45348 16.6105 4.8216 16.5661 4.18651C16.5203 3.60224 16.4946 3.01658 16.4684 2.43138L16.4634 2.31891C17.2217 3.41278 17.9819 5.40871 18.1071 9.16398ZM9.64444 2.62271C10.8141 2.69389 11.961 2.27196 12.8157 1.45604C12.8199 1.55918 12.8281 1.66184 12.8281 1.76544C12.8281 4.51878 11.4 6.75878 9.64444 6.75878C7.88892 6.75878 6.46075 4.51878 6.46075 1.76544C6.46075 1.66231 6.46901 1.55964 6.47267 1.45698C7.32795 2.27214 8.47481 2.69365 9.64444 2.62271ZM2.82685 2.32498C2.82685 2.37444 2.82226 2.42111 2.81997 2.47058C2.71681 4.80391 2.59806 7.42611 1.18136 9.17471C1.30469 5.38538 2.06714 3.40671 2.82685 2.32498Z" fill="black"/>
<path d="M14.9169 7.93333H13.083C12.8298 7.93333 12.6246 8.14227 12.6246 8.4C12.6246 8.65773 12.8298 8.86667 13.083 8.86667H14.9169C15.1702 8.86667 15.3754 8.65773 15.3754 8.4C15.3754 8.14227 15.1702 7.93333 14.9169 7.93333Z" fill="black"/>
<path d="M19.731 11.6667C15.2998 11.6667 11.7076 15.323 11.7076 19.8333C11.7076 24.3437 15.2998 28 19.731 28C24.1622 28 27.7544 24.3437 27.7544 19.8333C27.7496 15.325 24.1602 11.6716 19.731 11.6667ZM22.4016 17.5317C22.2787 15.8727 21.8573 14.2509 21.1582 12.747C22.3783 13.0043 23.51 13.5848 24.4391 14.4298C23.8955 15.4007 23.5701 16.4823 23.4864 17.5966C23.1276 17.5683 22.766 17.5467 22.4016 17.5317ZM25.1094 15.12C25.8236 15.963 26.3363 16.9629 26.6073 18.0413C25.8994 17.8906 25.1603 17.7716 24.3988 17.6848C24.4657 16.7903 24.7073 15.9183 25.1094 15.12ZM19.9813 12.6131C20.6782 13.4657 21.2366 15.2983 21.4796 17.5065C21.0101 17.5037 20.5388 17.5159 20.0684 17.5369C19.6777 15.724 18.6011 14.1408 17.0718 13.1301C17.9162 12.7803 18.8193 12.6002 19.731 12.6C19.8153 12.6 19.8974 12.6098 19.9813 12.6131ZM16.12 13.6145C17.6227 14.4607 18.7163 15.9001 19.1428 17.5933C18.7008 17.6274 18.2611 17.6703 17.8265 17.7259C16.0481 17.9225 14.3078 18.384 12.6612 19.0955C12.8956 16.8138 14.1789 14.7804 16.12 13.6145ZM12.6401 20.1432C14.314 19.3508 16.1052 18.8462 17.9411 18.6499C18.3748 18.5948 18.8163 18.5537 19.2615 18.5206C19.2732 18.7865 19.2652 19.053 19.2377 19.3177C18.9832 21.7294 17.1704 23.7659 14.4846 24.6951C13.3629 23.4459 12.7098 21.8341 12.6401 20.1432ZM15.2177 25.4165C18.0044 24.3021 19.8704 22.0612 20.1496 19.4175C20.1825 19.1023 20.1921 18.785 20.1785 18.4683C20.6369 18.4501 21.1 18.4427 21.5608 18.4473C21.7483 21.1157 21.4993 24.6167 20.5063 26.7937C20.4655 26.8805 20.4224 26.9542 20.3806 27.0335C20.167 27.0531 19.9515 27.0671 19.7333 27.0671C18.0851 27.069 16.488 26.4855 15.2177 25.4165ZM21.4828 26.8333C22.4158 24.5126 22.6584 21.0863 22.4814 18.4716C22.8069 18.4856 23.1288 18.5075 23.4493 18.5327C23.4795 20.8432 24.3502 22.8601 25.6775 23.7799C24.7032 25.2955 23.2068 26.3848 21.4828 26.8333ZM26.1272 22.9628C25.1099 22.2105 24.4171 20.5259 24.3685 18.6228C25.1831 18.7145 25.9921 18.8523 26.7916 19.0358C26.9443 20.3826 26.7137 21.7456 26.1272 22.9628Z" fill="black"/>
</g>
</svg>
